<?xml version="1.0" encoding="UTF-8"?>
<svg width="33px" height="50px" viewBox="0 0 33 50" version="1.1" xmlns="http://www.w3.org/2000/svg" xmlns:xlink="http://www.w3.org/1999/xlink">
    <!-- Generator: Sketch 42 (36781) - http://www.bohemiancoding.com/sketch -->
    <title>Tree +</title>
    <desc>Created with Sketch.</desc>
    <defs>
        <rect id="path-1" x="0.177354935" y="0.199201807" width="32.3721297" height="32.3721297" rx="5"></rect>
    </defs>
    <g id="Page-1" stroke="none" stroke-width="1" fill="none" fill-rule="evenodd">
        <g id="Garden" transform="translate(-46.000000, -39.000000)">
            <g id="Plant-a-new-tree" transform="translate(10.000000, 23.000000)">
                <g id="Tree-+" transform="translate(35.000000, 16.000000)">
                    <g id="Avatar-Copy" transform="translate(0.858418, 0.271722)">
                        <mask id="mask-2" fill="white">
                            <use xlink:href="#path-1"></use>
                        </mask>
                        <use id="Mask" fill="#FFFFFF" xlink:href="#path-1"></use>
                        <g id="new_tree" mask="url(#mask-2)" fill-rule="nonzero">
                            <g transform="translate(0.177355, 0.199202)">
                                <rect id="Rectangle-2" fill="#43AB5F" x="0.177534276" y="0.165486977" width="31.9561696" height="31.9561696"></rect>
                                <path d="M17.1040754,15.269164 L17.1040754,9.89035066 C17.1040754,9.42073765 16.7239063,9.04220077 16.254944,9.04220077 C15.786936,9.04220077 15.4058127,9.42193041 15.4058127,9.89035066 L15.4058127,15.269164 L10.0269993,15.269164 C9.55738628,15.269164 9.1788494,15.6493331 9.1788494,16.1182954 C9.1788494,16.5863034 9.55857904,16.9674267 10.0269993,16.9674267 L15.4058127,16.9674267 L15.4058127,22.3462402 C15.4058127,22.8158533 15.7859817,23.1943901 16.254944,23.1943901 C16.7229521,23.1943901 17.1040754,22.8146605 17.1040754,22.3462402 L17.1040754,16.9674267 L22.4828889,16.9674267 C22.9525018,16.9674267 23.3310388,16.5872577 23.3310388,16.1182954 C23.3310388,15.6502873 22.9513091,15.269164 22.4828889,15.269164 L17.1040754,15.269164 Z" id="Combined-Shape" fill="#FFFFFF"></path>
                            </g>
                        </g>
                    </g>
                    <g id="Treebase" transform="translate(6.850205, 32.643852)">
                        <path d="M8.8233031,0.557885354 L8.13963794,14.7146044 L12.8375021,14.7146044 L11.7907226,0.557885354 L8.8233031,0.557885354 Z" id="trunk" stroke="#705942" fill="#3D3024"></path>
                        <rect id="grass" fill="#98C267" x="0" y="14.7146044" width="20.97714" height="2.35433671"></rect>
                    </g>
                </g>
            </g>
        </g>
    </g>
</svg>