<?xml version="1.0" encoding="UTF-8"?>
<svg width="167px" height="40px" viewBox="0 0 167 40" version="1.1" xmlns="http://www.w3.org/2000/svg" xmlns:xlink="http://www.w3.org/1999/xlink">
    <!-- Generator: Sketch 42 (36781) - http://www.bohemiancoding.com/sketch -->
    <title>earth</title>
    <desc>Created with Sketch.</desc>
    <defs></defs>
    <g id="Page-1" stroke="none" stroke-width="1" fill="none" fill-rule="evenodd">
        <g id="A4" transform="translate(-972.000000, -755.000000)" fill-rule="nonzero">
            <g id="earth" transform="translate(972.000000, 755.000000)">
                <path d="M156.779293,20.0759228 C156.779293,14.7863919 152.492194,10.4989252 147.202296,10.4989252 C142.889446,10.4989252 139.240593,13.3528219 138.04025,17.2731593 C137.523032,18.9682813 135.894861,20.0759228 134.123223,20.0759228 C132.613137,20.0759228 131.29802,19.2235796 130.500121,17.9434094 C129.073172,15.6482996 125.551968,13.6912577 121.663635,13.6912577 C121.663635,8.40172676 117.376169,4.11426007 112.086638,4.11426007 C109.309257,4.11426007 106.832054,5.3146036 105.082856,7.20138323 C103.735734,3.54296571 100.249845,0.921927517 96.1253426,0.921927517 C90.8358117,0.921927517 86.548345,5.20902634 86.548345,10.4989252 C81.0895961,10.4989252 76.69692,15.0670729 76.9842226,20.5898303 C77.124747,23.2682554 78.4494289,25.585805 80.3969063,27.2106647 C80.4513503,27.0863263 80.5407415,26.9840599 80.5789995,26.8497891 C81.779343,22.9294517 85.428196,20.075555 89.7410454,20.075555 C95.0305764,20.075555 99.3180431,24.3630217 99.3180431,29.6525526 C104.607574,29.6525526 108.895041,33.9400193 108.895041,39.2295503 L156.779661,39.2295503 C162.069192,39.2295503 166.356659,34.9424515 166.356659,29.6525526 C166.356291,24.3633895 162.069192,20.0759228 156.779293,20.0759228" id="Shape" fill="#A3682D"></path>
                <path d="M99.3173073,29.6529205 C99.3173073,24.3633895 95.0298406,20.0759228 89.7403097,20.0759228 C85.4274603,20.0759228 81.7786072,22.9298196 80.5815745,26.850157 C80.5400058,26.9840599 80.4506146,27.0863263 80.3965384,27.2110326 C78.449061,25.5861728 77.1243791,23.2686233 76.9838547,20.5901981 C76.9742902,20.4147265 77.0092374,20.2517623 77.0092374,20.0762907 L70.5863143,20.0762907 C66.273465,20.0762907 62.6246119,22.9301875 61.4242684,26.8505249 C60.9070502,28.5456468 59.2788797,29.6532884 57.5072418,29.6532884 C55.9971559,29.6532884 54.6820385,28.8009451 53.8837714,27.5207749 C52.456823,25.2256651 48.9356192,23.2686233 45.047286,23.2686233 C45.047286,17.9790923 40.7601872,13.6916256 35.4702884,13.6916256 C32.6929075,13.6916256 30.2157046,14.8919691 28.4665064,16.7787488 C27.1193848,13.1203312 23.6334959,10.499293 19.5089934,10.499293 C14.2194625,10.499293 9.93199578,14.7863919 9.93199578,20.0762907 C4.4732469,20.0762907 0.080570821,24.6444384 0.367873394,30.1671958 C0.639357771,35.3482066 5.28733217,39.2299182 10.4749645,39.2299182 L108.894305,39.2299182 C108.894305,33.9403872 104.606838,29.6529205 99.3173073,29.6529205" id="Shape" fill="#B9873C"></path>
            </g>
        </g>
    </g>
</svg>