<?xml version="1.0" encoding="UTF-8"?>
<svg width="25px" height="19px" viewBox="0 0 25 19" version="1.1" xmlns="http://www.w3.org/2000/svg" xmlns:xlink="http://www.w3.org/1999/xlink">
    <!-- Generator: Sketch 42 (36781) - http://www.bohemiancoding.com/sketch -->
    <title>garden icon color</title>
    <desc>Created with Sketch.</desc>
    <defs></defs>
    <g id="Page-1" stroke="none" stroke-width="1" fill="none" fill-rule="evenodd">
        <g id="FRESH-ALL" transform="translate(-18.000000, -25.000000)">
            <g id="Group" transform="translate(10.000000, 15.000000)">
                <g id="garden-icon-color" transform="translate(8.000000, 10.000000)">
                    <path d="M4.60710108,12.2764799 L4.35237699,17.6214037 L6.10273558,17.6214037 L5.71272017,12.2764799 L4.60710108,12.2764799 Z" id="trunk" fill="#3D3024"></path>
                    <path d="M19.8788177,13.0822751 L19.6564175,17.7489418 L21.18466,17.7489418 L20.8441366,13.0822751 L19.8788177,13.0822751 Z" id="trunk-3" fill="#3D3024"></path>
                    <path d="M13.0836531,14.0156085 L12.9057329,17.7489418 L14.128327,17.7489418 L13.8559082,14.0156085 L13.0836531,14.0156085 Z" id="trunk-2" fill="#3D3124"></path>
                    <rect id="grass" fill="#98C267" x="1.31966155" y="17.6214037" width="23.0263158" height="0.888888889"></rect>
                    <path d="M0.614035088,1.17204536 C0.614035088,0.561109499 1.10923299,0.0658481336 1.72503977,0.0658481336 L8.71355673,0.0658481336 C9.32714767,0.0658481336 9.8245614,0.560111438 9.8245614,1.17204536 L9.8245614,11.1818731 C9.8245614,11.792809 9.32936351,12.2880704 8.71355673,12.2880704 L1.72503977,12.2880704 C1.11144883,12.2880704 0.614035088,11.7938071 0.614035088,11.1818731 L0.614035088,1.17204536 Z" id="tree" fill="#43AB5F"></path>
                    <path d="M17.1929825,3.04736008 C17.1929825,2.43164803 17.6988966,1.9325148 18.3013246,1.9325148 L22.5320087,1.9325148 C23.1441292,1.9325148 23.6403509,2.42821623 23.6403509,3.04736008 L23.6403509,12.0176695 C23.6403509,12.6333816 23.1344367,13.1325148 22.5320087,13.1325148 L18.3013246,13.1325148 C17.6892041,13.1325148 17.1929825,12.6368134 17.1929825,12.0176695 L17.1929825,3.04736008 Z" id="tree-3" fill="#43AB5F"></path>
                    <path d="M10.745614,4.91743866 C10.745614,4.29984227 11.2360377,3.79918147 11.8639465,3.79918147 L15.1535974,3.79918147 C15.7712353,3.79918147 16.2719298,4.29436414 16.2719298,4.91743866 L16.2719298,12.9475909 C16.2719298,13.5651873 15.7815062,14.0658481 15.1535974,14.0658481 L11.8639465,14.0658481 C11.2463085,14.0658481 10.745614,13.5706655 10.745614,12.9475909 L10.745614,4.91743866 Z" id="tree-2" fill="#43AB5F"></path>
                </g>
            </g>
        </g>
    </g>
</svg>