<?xml version="1.0" encoding="UTF-8"?>
<svg width="19px" height="15px" viewBox="0 0 19 15" version="1.1" xmlns="http://www.w3.org/2000/svg" xmlns:xlink="http://www.w3.org/1999/xlink">
    <!-- Generator: Sketch 42 (36781) - http://www.bohemiancoding.com/sketch -->
    <title>garden icon</title>
    <desc>Created with Sketch.</desc>
    <defs>
        <path d="M0.466666667,0.879034016 C0.466666667,0.420832125 0.843017069,0.0493861002 1.29714712,0.0493861002 L6.63618621,0.0493861002 C7.0948479,0.0493861002 7.46666667,0.420083579 7.46666667,0.879034016 L7.46666667,8.38640485 C7.46666667,8.84460674 7.09031626,9.21605277 6.63618621,9.21605277 L1.29714712,9.21605277 C0.838485432,9.21605277 0.466666667,8.84535529 0.466666667,8.38640485 L0.466666667,0.879034016 Z" id="path-1"></path>
        <mask id="mask-2" maskContentUnits="userSpaceOnUse" maskUnits="objectBoundingBox" x="0" y="0" width="7" height="9.16666667" fill="white">
            <use xlink:href="#path-1"></use>
        </mask>
        <path d="M13.0666667,2.28552006 C13.0666667,1.82373602 13.4349631,1.4493861 13.8978849,1.4493861 L17.1354485,1.4493861 C17.5945176,1.4493861 17.9666667,1.83214419 17.9666667,2.28552006 L17.9666667,9.01325214 C17.9666667,9.47503618 17.5983703,9.8493861 17.1354485,9.8493861 L13.8978849,9.8493861 C13.4388157,9.8493861 13.0666667,9.46662801 13.0666667,9.01325214 L13.0666667,2.28552006 Z" id="path-3"></path>
        <mask id="mask-4" maskContentUnits="userSpaceOnUse" maskUnits="objectBoundingBox" x="0" y="0" width="4.9" height="8.4" fill="white">
            <use xlink:href="#path-3"></use>
        </mask>
        <path d="M8.16666667,3.67342098 C8.16666667,3.21831908 8.53938865,2.8493861 8.99645151,2.8493861 L11.5368818,2.8493861 C11.9951593,2.8493861 12.3666667,3.22077311 12.3666667,3.67342098 L12.3666667,9.72535122 C12.3666667,10.1804531 11.9939447,10.5493861 11.5368818,10.5493861 L8.99645151,10.5493861 C8.538174,10.5493861 8.16666667,10.1779991 8.16666667,9.72535122 L8.16666667,3.67342098 Z" id="path-5"></path>
        <mask id="mask-6" maskContentUnits="userSpaceOnUse" maskUnits="objectBoundingBox" x="0" y="0" width="4.2" height="7.7" fill="white">
            <use xlink:href="#path-5"></use>
        </mask>
    </defs>
    <g id="Page-1" stroke="none" stroke-width="1" fill="none" fill-rule="evenodd">
        <g id="Garden" transform="translate(-198.000000, -318.000000)" fill="#FFFFFF">
            <g id="Tree-section-2" transform="translate(22.000000, 255.000000)">
                <g id="Add-to-garden-button" transform="translate(169.000000, 59.000000)">
                    <g id="garden-icon" transform="translate(7.072537, 4.386197)">
                        <path d="M3.50139682,9.20735992 L3.30780651,13.2160528 L4.63807904,13.2160528 L4.34166733,9.20735992 L3.50139682,9.20735992 Z" id="trunk"></path>
                        <path d="M15.1079015,9.81170634 L14.9388773,13.3117063 L16.1003416,13.3117063 L15.8415438,9.81170634 L15.1079015,9.81170634 Z" id="trunk-3"></path>
                        <path d="M9.94357639,10.5117063 L9.80835704,13.3117063 L10.7375285,13.3117063 L10.5304903,10.5117063 L9.94357639,10.5117063 Z" id="trunk-2"></path>
                        <rect id="grass" x="1.00294278" y="13.2160528" width="17.5" height="0.666666667"></rect>
                        <use id="tree" stroke="#43AB5F" mask="url(#mask-2)" xlink:href="#path-1"></use>
                        <use id="tree-3" stroke="#43AB5F" mask="url(#mask-4)" xlink:href="#path-3"></use>
                        <use id="tree-2" stroke="#43AB5F" mask="url(#mask-6)" xlink:href="#path-5"></use>
                    </g>
                </g>
            </g>
        </g>
    </g>
</svg>