<?xml version="1.0" encoding="UTF-8"?>
<svg width="80px" height="121px" viewBox="0 0 80 121" version="1.1" xmlns="http://www.w3.org/2000/svg" xmlns:xlink="http://www.w3.org/1999/xlink">
    <!-- Generator: Sketch 42 (36781) - http://www.bohemiancoding.com/sketch -->
    <title>Combined Shape</title>
    <desc>Created with Sketch.</desc>
    <defs></defs>
    <g id="Page-1" stroke="none" stroke-width="1" fill="none" fill-rule="evenodd">
        <g id="A4" transform="translate(-663.000000, -668.000000)" fill="#D9D9D9">
            <path d="M760.734253,723.844526 C762.165354,724.943979 763.088163,726.673777 763.088163,728.614762 C763.088163,730.558494 762.164366,732.286669 760.73427,733.384981 L727.264644,766.854608 C724.91804,769.201212 721.108681,769.196449 718.766867,766.854635 C716.420278,764.508046 716.426188,760.697564 718.766894,758.356858 L742.500174,734.623578 L648.912516,734.623578 C645.598432,734.623578 642.911837,731.926587 642.911837,728.614762 C642.911837,725.296184 645.604658,722.605946 648.912516,722.605946 L742.500174,722.605946 L718.766894,698.872666 C716.426188,696.53196 716.420278,692.721478 718.766867,690.374889 C721.108681,688.033075 724.91804,688.028313 727.264644,690.374916 L760.734253,723.844526 Z" id="Combined-Shape" transform="translate(703.000000, 728.614762) rotate(90.000000) translate(-703.000000, -728.614762) "></path>
        </g>
    </g>
</svg>