<?xml version="1.0" encoding="UTF-8"?>
<svg width="15px" height="14px" viewBox="0 0 15 14" version="1.1" xmlns="http://www.w3.org/2000/svg" xmlns:xlink="http://www.w3.org/1999/xlink">
    <!-- Generator: Sketch 42 (36781) - http://www.bohemiancoding.com/sketch -->
    <title>harvest basket old</title>
    <desc>Created with Sketch.</desc>
    <defs>
        <rect id="path-1" x="0" y="0" width="14.5703436" height="2.91406872" rx="0.769230769"></rect>
        <rect id="path-3" x="0" y="0.33125498" width="14.5703436" height="2.91406872" rx="0.769230769"></rect>
        <rect id="path-5" x="0" y="0.66250996" width="14.5703436" height="2.91406872" rx="0.769230769"></rect>
    </defs>
    <g id="Page-1" stroke="none" stroke-width="1" fill="none" fill-rule="evenodd">
        <g id="Atomic" transform="translate(-721.000000, -481.000000)">
            <g id="treebase_auto_harvest" transform="translate(703.335483, 467.000000)">
                <g id="harvest-basket-old" transform="translate(17.000000, 14.000000)">
                    <g id="apple-copy" transform="translate(2.435216, 2.000000)" fill-rule="nonzero">
                        <g id="Group">
                            <path d="M2.81734043,1.72478723 C2.59765957,1.77914894 2.36765957,1.77914894 2.14797872,1.72478723 C1.0037234,1.44180851 0.0456382979,1.55031915 0.0567021277,3.70808511 C0.0623404255,4.81340426 1.09744681,6.24659574 2.18531915,6.00138298 C2.38042553,5.95744681 2.58478723,5.95744681 2.77989362,6.00138298 C3.86776596,6.24659574 4.90287234,4.81340426 4.90851064,3.70808511 C4.91957447,1.55042553 3.96159574,1.44180851 2.81734043,1.72478723 Z" id="Shape" fill="#D13834"></path>
                            <path d="M0.588617021,3.15680851 C0.529787234,3.15680851 0.482234043,3.10914894 0.482234043,3.05042553 C0.482234043,2.46382979 0.911702128,1.98659574 1.43968085,1.98659574 C1.49851064,1.98659574 1.54606383,2.03425532 1.54606383,2.09297872 C1.54606383,2.15170213 1.49851064,2.1993617 1.43968085,2.1993617 C1.02914894,2.1993617 0.695,2.58117021 0.695,3.05042553 C0.695,3.10914894 0.647340426,3.15680851 0.588617021,3.15680851 Z" id="Shape" fill="#F75B57"></path>
                            <path d="M2.56396356,2.12755319 C2.50042317,2.12755319 2.44788697,2.08212766 2.44587545,2.02457447 C2.42990161,1.5743617 2.23750556,1.00914894 1.74515625,0.773085106 C1.68753209,0.745425532 1.66564201,0.68106383 1.69640645,0.629148936 C1.72728921,0.577340426 1.79863904,0.557659574 1.85661817,0.585319149 C2.43806602,0.864042553 2.66442128,1.50797872 2.68240664,2.01776596 C2.68453649,2.07648936 2.63330187,2.1256383 2.56786828,2.12744681 C2.56644838,2.12755319 2.56526513,2.12755319 2.56396356,2.12755319 Z" id="Shape" fill="#4C312C"></path>
                            <path d="M2.46553191,3.1318883 C2.28680851,3.1318883 2.11861702,2.94749812 1.99212766,2.61249918 C1.95053191,2.50270961 1.95053191,2.32451269 1.99212766,2.21444161 C2.0337234,2.10437053 2.10095745,2.10437053 2.14255319,2.21444161 C2.22893617,2.44302912 2.3437234,2.56886486 2.46553191,2.56886486 C2.58734043,2.56886486 2.70212766,2.44302912 2.78840426,2.21444161 C2.83,2.10437053 2.89723404,2.10437053 2.93882979,2.21444161 C2.98042553,2.32423118 2.98042553,2.5024281 2.93882979,2.61249918 C2.81234043,2.94749812 2.64425532,3.1318883 2.46553191,3.1318883 Z" id="Shape" fill="#994530"></path>
                            <path d="M2.37287234,1.38723404 L2.43765957,0.952553191 C2.50606383,0.493510638 2.86648936,0.133085106 3.32553191,0.0646808511 L3.76010638,0 L3.69531915,0.434680851 C3.62691489,0.893723404 3.26648936,1.25414894 2.80744681,1.32255319 L2.37287234,1.38723404 Z" id="Shape" fill="#659C35"></path>
                        </g>
                    </g>
                    <g id="apple-copy-2" transform="translate(11.935216, 6.500000) rotate(29.000000) translate(-11.935216, -6.500000) translate(9.435216, 3.000000)" fill-rule="nonzero">
                        <g id="Group">
                            <path d="M2.81734043,1.72478723 C2.59765957,1.77914894 2.36765957,1.77914894 2.14797872,1.72478723 C1.0037234,1.44180851 0.0456382979,1.55031915 0.0567021277,3.70808511 C0.0623404255,4.81340426 1.09744681,6.24659574 2.18531915,6.00138298 C2.38042553,5.95744681 2.58478723,5.95744681 2.77989362,6.00138298 C3.86776596,6.24659574 4.90287234,4.81340426 4.90851064,3.70808511 C4.91957447,1.55042553 3.96159574,1.44180851 2.81734043,1.72478723 Z" id="Shape" fill="#D13834"></path>
                            <path d="M0.588617021,3.15680851 C0.529787234,3.15680851 0.482234043,3.10914894 0.482234043,3.05042553 C0.482234043,2.46382979 0.911702128,1.98659574 1.43968085,1.98659574 C1.49851064,1.98659574 1.54606383,2.03425532 1.54606383,2.09297872 C1.54606383,2.15170213 1.49851064,2.1993617 1.43968085,2.1993617 C1.02914894,2.1993617 0.695,2.58117021 0.695,3.05042553 C0.695,3.10914894 0.647340426,3.15680851 0.588617021,3.15680851 Z" id="Shape" fill="#F75B57"></path>
                            <path d="M2.56396356,2.12755319 C2.50042317,2.12755319 2.44788697,2.08212766 2.44587545,2.02457447 C2.42990161,1.5743617 2.23750556,1.00914894 1.74515625,0.773085106 C1.68753209,0.745425532 1.66564201,0.68106383 1.69640645,0.629148936 C1.72728921,0.577340426 1.79863904,0.557659574 1.85661817,0.585319149 C2.43806602,0.864042553 2.66442128,1.50797872 2.68240664,2.01776596 C2.68453649,2.07648936 2.63330187,2.1256383 2.56786828,2.12744681 C2.56644838,2.12755319 2.56526513,2.12755319 2.56396356,2.12755319 Z" id="Shape" fill="#4C312C"></path>
                            <path d="M2.46553191,3.1318883 C2.28680851,3.1318883 2.11861702,2.94749812 1.99212766,2.61249918 C1.95053191,2.50270961 1.95053191,2.32451269 1.99212766,2.21444161 C2.0337234,2.10437053 2.10095745,2.10437053 2.14255319,2.21444161 C2.22893617,2.44302912 2.3437234,2.56886486 2.46553191,2.56886486 C2.58734043,2.56886486 2.70212766,2.44302912 2.78840426,2.21444161 C2.83,2.10437053 2.89723404,2.10437053 2.93882979,2.21444161 C2.98042553,2.32423118 2.98042553,2.5024281 2.93882979,2.61249918 C2.81234043,2.94749812 2.64425532,3.1318883 2.46553191,3.1318883 Z" id="Shape" fill="#994530"></path>
                            <path d="M2.37287234,1.38723404 L2.43765957,0.952553191 C2.50606383,0.493510638 2.86648936,0.133085106 3.32553191,0.0646808511 L3.76010638,0 L3.69531915,0.434680851 C3.62691489,0.893723404 3.26648936,1.25414894 2.80744681,1.32255319 L2.37287234,1.38723404 Z" id="Shape" fill="#659C35"></path>
                        </g>
                    </g>
                    <g id="apple-copy-3" transform="translate(8.935216, 4.500000) rotate(-19.000000) translate(-8.935216, -4.500000) translate(6.435216, 1.000000)" fill-rule="nonzero">
                        <g id="Group">
                            <path d="M2.81734043,1.72478723 C2.59765957,1.77914894 2.36765957,1.77914894 2.14797872,1.72478723 C1.0037234,1.44180851 0.0456382979,1.55031915 0.0567021277,3.70808511 C0.0623404255,4.81340426 1.09744681,6.24659574 2.18531915,6.00138298 C2.38042553,5.95744681 2.58478723,5.95744681 2.77989362,6.00138298 C3.86776596,6.24659574 4.90287234,4.81340426 4.90851064,3.70808511 C4.91957447,1.55042553 3.96159574,1.44180851 2.81734043,1.72478723 Z" id="Shape" fill="#D13834"></path>
                            <path d="M0.588617021,3.15680851 C0.529787234,3.15680851 0.482234043,3.10914894 0.482234043,3.05042553 C0.482234043,2.46382979 0.911702128,1.98659574 1.43968085,1.98659574 C1.49851064,1.98659574 1.54606383,2.03425532 1.54606383,2.09297872 C1.54606383,2.15170213 1.49851064,2.1993617 1.43968085,2.1993617 C1.02914894,2.1993617 0.695,2.58117021 0.695,3.05042553 C0.695,3.10914894 0.647340426,3.15680851 0.588617021,3.15680851 Z" id="Shape" fill="#F75B57"></path>
                            <path d="M2.56396356,2.12755319 C2.50042317,2.12755319 2.44788697,2.08212766 2.44587545,2.02457447 C2.42990161,1.5743617 2.23750556,1.00914894 1.74515625,0.773085106 C1.68753209,0.745425532 1.66564201,0.68106383 1.69640645,0.629148936 C1.72728921,0.577340426 1.79863904,0.557659574 1.85661817,0.585319149 C2.43806602,0.864042553 2.66442128,1.50797872 2.68240664,2.01776596 C2.68453649,2.07648936 2.63330187,2.1256383 2.56786828,2.12744681 C2.56644838,2.12755319 2.56526513,2.12755319 2.56396356,2.12755319 Z" id="Shape" fill="#4C312C"></path>
                            <path d="M2.46553191,3.1318883 C2.28680851,3.1318883 2.11861702,2.94749812 1.99212766,2.61249918 C1.95053191,2.50270961 1.95053191,2.32451269 1.99212766,2.21444161 C2.0337234,2.10437053 2.10095745,2.10437053 2.14255319,2.21444161 C2.22893617,2.44302912 2.3437234,2.56886486 2.46553191,2.56886486 C2.58734043,2.56886486 2.70212766,2.44302912 2.78840426,2.21444161 C2.83,2.10437053 2.89723404,2.10437053 2.93882979,2.21444161 C2.98042553,2.32423118 2.98042553,2.5024281 2.93882979,2.61249918 C2.81234043,2.94749812 2.64425532,3.1318883 2.46553191,3.1318883 Z" id="Shape" fill="#994530"></path>
                            <path d="M2.37287234,1.38723404 L2.43765957,0.952553191 C2.50606383,0.493510638 2.86648936,0.133085106 3.32553191,0.0646808511 L3.76010638,0 L3.69531915,0.434680851 C3.62691489,0.893723404 3.26648936,1.25414894 2.80744681,1.32255319 L2.37287234,1.38723404 Z" id="Shape" fill="#659C35"></path>
                        </g>
                    </g>
                    <g id="Group-2" transform="translate(0.783912, 5.601865)">
                        <g id="Rectangle-10">
                            <g id="path-1-Clipped">
                                <mask id="mask-2" fill="white">
                                    <use xlink:href="#path-1"></use>
                                </mask>
                                <g id="path-1"></g>
                                <rect id="path-1" stroke="#705942" fill="#FFE785" fill-rule="nonzero" mask="url(#mask-2)" x="0" y="0" width="14.5703436" height="2.91406872" rx="0.769230769"></rect>
                            </g>
                        </g>
                        <g id="Rectangle-10-Copy" transform="translate(0.000000, 2.000000)">
                            <g id="path-3-Clipped">
                                <mask id="mask-4" fill="white">
                                    <use xlink:href="#path-3"></use>
                                </mask>
                                <g id="path-3"></g>
                                <rect id="path-3" stroke="#705942" fill="#FFE785" fill-rule="nonzero" mask="url(#mask-4)" x="0" y="0.33125498" width="14.5703436" height="2.91406872" rx="0.769230769"></rect>
                            </g>
                        </g>
                        <g id="Rectangle-10-Copy-2" transform="translate(0.000000, 4.000000)">
                            <g id="path-5-Clipped">
                                <mask id="mask-6" fill="white">
                                    <use xlink:href="#path-5"></use>
                                </mask>
                                <g id="path-5"></g>
                                <rect id="path-5" stroke="#705942" fill="#FFE785" fill-rule="nonzero" mask="url(#mask-6)" x="0" y="0.66250996" width="14.5703436" height="2.91406872" rx="0.769230769"></rect>
                            </g>
                        </g>
                        <ellipse id="Oval-2" fill="#705942" fill-rule="nonzero" cx="1.38978662" cy="1.38978662" rx="0.224159133" ry="0.224159133"></ellipse>
                        <ellipse id="Oval-2-Copy" fill="#705942" fill-rule="nonzero" cx="1.38978662" cy="3.7210416" rx="0.224159133" ry="0.224159133"></ellipse>
                        <ellipse id="Oval-2-Copy-2" fill="#705942" fill-rule="nonzero" cx="1.38978662" cy="6.05229658" rx="0.224159133" ry="0.224159133"></ellipse>
                        <ellipse id="Oval-2-Copy-5" fill="#705942" fill-rule="nonzero" cx="13.0460615" cy="1.38978662" rx="0.224159133" ry="0.224159133"></ellipse>
                        <ellipse id="Oval-2-Copy-4" fill="#705942" fill-rule="nonzero" cx="13.0460615" cy="3.7210416" rx="0.224159133" ry="0.224159133"></ellipse>
                        <ellipse id="Oval-2-Copy-3" fill="#705942" fill-rule="nonzero" cx="13.0460615" cy="6.05229658" rx="0.224159133" ry="0.224159133"></ellipse>
                    </g>
                </g>
            </g>
        </g>
    </g>
</svg>