<?xml version="1.0" encoding="UTF-8"?>
<svg width="15px" height="14px" viewBox="0 0 15 14" version="1.1" xmlns="http://www.w3.org/2000/svg" xmlns:xlink="http://www.w3.org/1999/xlink">
    <!-- Generator: Sketch 42 (36781) - http://www.bohemiancoding.com/sketch -->
    <title>harvest basket</title>
    <desc>Created with Sketch.</desc>
    <defs>
        <rect id="path-1" x="0" y="0" width="14.4246402" height="2.91406872" rx="0.769230769"></rect>
        <mask id="mask-2" maskContentUnits="userSpaceOnUse" maskUnits="objectBoundingBox" x="0" y="0" width="14.4246402" height="2.91406872" fill="white">
            <use xlink:href="#path-1"></use>
        </mask>
        <rect id="path-3" x="0" y="2.33125498" width="14.4246402" height="2.91406872" rx="0.769230769"></rect>
        <mask id="mask-4" maskContentUnits="userSpaceOnUse" maskUnits="objectBoundingBox" x="0" y="0" width="14.4246402" height="2.91406872" fill="white">
            <use xlink:href="#path-3"></use>
        </mask>
        <rect id="path-5" x="0" y="4.66250996" width="14.4246402" height="2.91406872" rx="0.769230769"></rect>
        <mask id="mask-6" maskContentUnits="userSpaceOnUse" maskUnits="objectBoundingBox" x="0" y="0" width="14.4246402" height="2.91406872" fill="white">
            <use xlink:href="#path-5"></use>
        </mask>
    </defs>
    <g id="Page-1" stroke="none" stroke-width="1" fill="none" fill-rule="evenodd">
        <g id="Garden" transform="translate(-95.000000, -210.000000)">
            <g id="Tree-section" transform="translate(10.000000, 146.000000)">
                <g id="Harvesting-button" transform="translate(79.000000, 59.000000)">
                    <g id="harvest-basket" transform="translate(5.490000, 5.000000)">
                        <g id="apple" transform="translate(2.240864, 2.000000)">
                            <g id="Group" transform="translate(0.000000, -0.000000)">
                                <path d="M2.78916702,1.72478723 C2.57168298,1.77914894 2.34398298,1.77914894 2.12649894,1.72478723 C0.99368617,1.44180851 0.0451819149,1.55031915 0.0561351064,3.70808511 C0.0617170213,4.81340426 1.08647234,6.24659574 2.16346596,6.00138298 C2.35662128,5.95744681 2.55893936,5.95744681 2.75209468,6.00138298 C3.8290883,6.24659574 4.85384362,4.81340426 4.85942553,3.70808511 C4.87037872,1.55042553 3.92197979,1.44180851 2.78916702,1.72478723 Z" id="Shape" fill="#D13834"></path>
                                <path d="M0.582730851,3.15680851 C0.524489362,3.15680851 0.477411702,3.10914894 0.477411702,3.05042553 C0.477411702,2.46382979 0.902585106,1.98659574 1.42528404,1.98659574 C1.48352553,1.98659574 1.53060319,2.03425532 1.53060319,2.09297872 C1.53060319,2.15170213 1.48352553,2.1993617 1.42528404,2.1993617 C1.01885745,2.1993617 0.68805,2.58117021 0.68805,3.05042553 C0.68805,3.10914894 0.640867021,3.15680851 0.582730851,3.15680851 Z" id="Shape" fill="#F75B57"></path>
                                <path d="M2.53832392,2.12755319 C2.47541893,2.12755319 2.4234081,2.08212766 2.4214167,2.02457447 C2.4056026,1.5743617 2.2151305,1.00914894 1.72770468,0.773085106 C1.67065677,0.745425532 1.64898559,0.68106383 1.67944238,0.629148936 C1.71001632,0.577340426 1.78065265,0.557659574 1.83805199,0.585319149 C2.41368536,0.864042553 2.63777707,1.50797872 2.65558258,2.01776596 C2.65769112,2.07648936 2.60696885,2.1256383 2.54218959,2.12744681 C2.5407839,2.12755319 2.53961248,2.12755319 2.53832392,2.12755319 Z" id="Shape" fill="#4C312C"></path>
                                <path d="M2.4408766,3.1318883 C2.26394043,3.1318883 2.09743085,2.94749812 1.97220638,2.61249918 C1.9310266,2.50270961 1.9310266,2.32451269 1.97220638,2.21444161 C2.01338617,2.10437053 2.07994787,2.10437053 2.12112766,2.21444161 C2.20664681,2.44302912 2.32028617,2.56886486 2.4408766,2.56886486 C2.56146702,2.56886486 2.67510638,2.44302912 2.76052021,2.21444161 C2.8017,2.10437053 2.8682617,2.10437053 2.90944149,2.21444161 C2.95062128,2.32423118 2.95062128,2.5024281 2.90944149,2.61249918 C2.78421702,2.94749812 2.61781277,3.1318883 2.4408766,3.1318883 Z" id="Shape" fill="#994530"></path>
                                <path d="M2.34914362,1.38723404 L2.41328298,0.952553191 C2.48100319,0.493510638 2.83782447,0.133085106 3.2922766,0.0646808511 L3.72250532,0 L3.65836596,0.434680851 C3.59064574,0.893723404 3.23382447,1.25414894 2.77937234,1.32255319 L2.34914362,1.38723404 Z" id="Shape" fill="#659C35"></path>
                            </g>
                        </g>
                        <g id="apple-2" transform="translate(11.645864, 6.500000) rotate(29.000000) translate(-11.645864, -6.500000) translate(9.170864, 3.000000)">
                            <g id="Group" transform="translate(0.000000, -0.000000)">
                                <path d="M2.78916702,1.72478723 C2.57168298,1.77914894 2.34398298,1.77914894 2.12649894,1.72478723 C0.99368617,1.44180851 0.0451819149,1.55031915 0.0561351064,3.70808511 C0.0617170213,4.81340426 1.08647234,6.24659574 2.16346596,6.00138298 C2.35662128,5.95744681 2.55893936,5.95744681 2.75209468,6.00138298 C3.8290883,6.24659574 4.85384362,4.81340426 4.85942553,3.70808511 C4.87037872,1.55042553 3.92197979,1.44180851 2.78916702,1.72478723 Z" id="Shape" fill="#D13834"></path>
                                <path d="M0.582730851,3.15680851 C0.524489362,3.15680851 0.477411702,3.10914894 0.477411702,3.05042553 C0.477411702,2.46382979 0.902585106,1.98659574 1.42528404,1.98659574 C1.48352553,1.98659574 1.53060319,2.03425532 1.53060319,2.09297872 C1.53060319,2.15170213 1.48352553,2.1993617 1.42528404,2.1993617 C1.01885745,2.1993617 0.68805,2.58117021 0.68805,3.05042553 C0.68805,3.10914894 0.640867021,3.15680851 0.582730851,3.15680851 Z" id="Shape" fill="#F75B57"></path>
                                <path d="M2.53832392,2.12755319 C2.47541893,2.12755319 2.4234081,2.08212766 2.4214167,2.02457447 C2.4056026,1.5743617 2.2151305,1.00914894 1.72770468,0.773085106 C1.67065677,0.745425532 1.64898559,0.68106383 1.67944238,0.629148936 C1.71001632,0.577340426 1.78065265,0.557659574 1.83805199,0.585319149 C2.41368536,0.864042553 2.63777707,1.50797872 2.65558258,2.01776596 C2.65769112,2.07648936 2.60696885,2.1256383 2.54218959,2.12744681 C2.5407839,2.12755319 2.53961248,2.12755319 2.53832392,2.12755319 Z" id="Shape" fill="#4C312C"></path>
                                <path d="M2.4408766,3.1318883 C2.26394043,3.1318883 2.09743085,2.94749812 1.97220638,2.61249918 C1.9310266,2.50270961 1.9310266,2.32451269 1.97220638,2.21444161 C2.01338617,2.10437053 2.07994787,2.10437053 2.12112766,2.21444161 C2.20664681,2.44302912 2.32028617,2.56886486 2.4408766,2.56886486 C2.56146702,2.56886486 2.67510638,2.44302912 2.76052021,2.21444161 C2.8017,2.10437053 2.8682617,2.10437053 2.90944149,2.21444161 C2.95062128,2.32423118 2.95062128,2.5024281 2.90944149,2.61249918 C2.78421702,2.94749812 2.61781277,3.1318883 2.4408766,3.1318883 Z" id="Shape" fill="#994530"></path>
                                <path d="M2.34914362,1.38723404 L2.41328298,0.952553191 C2.48100319,0.493510638 2.83782447,0.133085106 3.2922766,0.0646808511 L3.72250532,0 L3.65836596,0.434680851 C3.59064574,0.893723404 3.23382447,1.25414894 2.77937234,1.32255319 L2.34914362,1.38723404 Z" id="Shape" fill="#659C35"></path>
                            </g>
                        </g>
                        <g id="apple-3" transform="translate(8.699501, 4.491861) rotate(-19.000000) translate(-8.699501, -4.491861) translate(6.199501, 0.991861)">
                            <g id="Group" transform="translate(-0.000000, -0.000000)">
                                <path d="M2.78916702,1.72478723 C2.57168298,1.77914894 2.34398298,1.77914894 2.12649894,1.72478723 C0.99368617,1.44180851 0.0451819149,1.55031915 0.0561351064,3.70808511 C0.0617170213,4.81340426 1.08647234,6.24659574 2.16346596,6.00138298 C2.35662128,5.95744681 2.55893936,5.95744681 2.75209468,6.00138298 C3.8290883,6.24659574 4.85384362,4.81340426 4.85942553,3.70808511 C4.87037872,1.55042553 3.92197979,1.44180851 2.78916702,1.72478723 Z" id="Shape" fill="#D13834"></path>
                                <path d="M0.582730851,3.15680851 C0.524489362,3.15680851 0.477411702,3.10914894 0.477411702,3.05042553 C0.477411702,2.46382979 0.902585106,1.98659574 1.42528404,1.98659574 C1.48352553,1.98659574 1.53060319,2.03425532 1.53060319,2.09297872 C1.53060319,2.15170213 1.48352553,2.1993617 1.42528404,2.1993617 C1.01885745,2.1993617 0.68805,2.58117021 0.68805,3.05042553 C0.68805,3.10914894 0.640867021,3.15680851 0.582730851,3.15680851 Z" id="Shape" fill="#F75B57"></path>
                                <path d="M2.53832392,2.12755319 C2.47541893,2.12755319 2.4234081,2.08212766 2.4214167,2.02457447 C2.4056026,1.5743617 2.2151305,1.00914894 1.72770468,0.773085106 C1.67065677,0.745425532 1.64898559,0.68106383 1.67944238,0.629148936 C1.71001632,0.577340426 1.78065265,0.557659574 1.83805199,0.585319149 C2.41368536,0.864042553 2.63777707,1.50797872 2.65558258,2.01776596 C2.65769112,2.07648936 2.60696885,2.1256383 2.54218959,2.12744681 C2.5407839,2.12755319 2.53961248,2.12755319 2.53832392,2.12755319 Z" id="Shape" fill="#4C312C"></path>
                                <path d="M2.4408766,3.1318883 C2.26394043,3.1318883 2.09743085,2.94749812 1.97220638,2.61249918 C1.9310266,2.50270961 1.9310266,2.32451269 1.97220638,2.21444161 C2.01338617,2.10437053 2.07994787,2.10437053 2.12112766,2.21444161 C2.20664681,2.44302912 2.32028617,2.56886486 2.4408766,2.56886486 C2.56146702,2.56886486 2.67510638,2.44302912 2.76052021,2.21444161 C2.8017,2.10437053 2.8682617,2.10437053 2.90944149,2.21444161 C2.95062128,2.32423118 2.95062128,2.5024281 2.90944149,2.61249918 C2.78421702,2.94749812 2.61781277,3.1318883 2.4408766,3.1318883 Z" id="Shape" fill="#994530"></path>
                                <path d="M2.34914362,1.38723404 L2.41328298,0.952553191 C2.48100319,0.493510638 2.83782447,0.133085106 3.2922766,0.0646808511 L3.72250532,2.48689958e-14 L3.65836596,0.434680851 C3.59064574,0.893723404 3.23382447,1.25414894 2.77937234,1.32255319 L2.34914362,1.38723404 Z" id="Shape" fill="#659C35"></path>
                            </g>
                        </g>
                        <g id="basket" transform="translate(0.606073, 5.601865)">
                            <use id="Rectangle-10" stroke="#FFFFFF" mask="url(#mask-2)" fill="#705942" xlink:href="#path-1"></use>
                            <use id="Rectangle-10-Copy" stroke="#FFFFFF" mask="url(#mask-4)" fill="#705942" xlink:href="#path-3"></use>
                            <use id="Rectangle-10-Copy-2" stroke="#FFFFFF" mask="url(#mask-6)" fill="#705942" xlink:href="#path-5"></use>
                            <ellipse id="Oval-2" fill="#FFFFFF" cx="1.37588876" cy="1.38978662" rx="0.221917541" ry="0.224159133"></ellipse>
                            <ellipse id="Oval-2-Copy" fill="#FFFFFF" cx="1.37588876" cy="3.7210416" rx="0.221917541" ry="0.224159133"></ellipse>
                            <ellipse id="Oval-2-Copy-2" fill="#FFFFFF" cx="1.37588876" cy="6.05229658" rx="0.221917541" ry="0.224159133"></ellipse>
                            <ellipse id="Oval-2-Copy-5" fill="#FFFFFF" cx="12.9156009" cy="1.38978662" rx="0.221917541" ry="0.224159133"></ellipse>
                            <ellipse id="Oval-2-Copy-4" fill="#FFFFFF" cx="12.9156009" cy="3.7210416" rx="0.221917541" ry="0.224159133"></ellipse>
                            <ellipse id="Oval-2-Copy-3" fill="#FFFFFF" cx="12.9156009" cy="6.05229658" rx="0.221917541" ry="0.224159133"></ellipse>
                        </g>
                    </g>
                </g>
            </g>
        </g>
    </g>
</svg>