<?xml version="1.0" encoding="UTF-8"?>
<svg width="22px" height="19px" viewBox="0 0 22 19" version="1.1" xmlns="http://www.w3.org/2000/svg" xmlns:xlink="http://www.w3.org/1999/xlink">
    <!-- Generator: Sketch 42 (36781) - http://www.bohemiancoding.com/sketch -->
    <title>harvest basket</title>
    <desc>Created with Sketch.</desc>
    <defs>
        <path d="M3.98452432,2.46398176 C3.67383283,2.54164134 3.34854711,2.54164134 3.03785562,2.46398176 C1.41955167,2.05972644 0.0645455927,2.21474164 0.0801930091,5.29726444 C0.0881671733,6.87629179 1.55210334,8.92370821 3.09066565,8.57340426 C3.36660182,8.5106383 3.65562766,8.5106383 3.93156383,8.57340426 C5.47012614,8.92370821 6.93406231,6.87629179 6.94203647,5.29726444 C6.95768389,2.21489362 5.60282827,2.05972644 3.98452432,2.46398176 Z" id="path-1"></path>
        <mask id="mask-2" maskContentUnits="userSpaceOnUse" maskUnits="objectBoundingBox" x="-1" y="-1" width="8.86211184" height="8.31068786">
            <rect x="-0.919941171" y="1.30229814" width="8.86211184" height="8.31068786" fill="white"></rect>
            <use xlink:href="#path-1" fill="black"></use>
        </mask>
        <path d="M3.98452432,2.46398176 C3.67383283,2.54164134 3.34854711,2.54164134 3.03785562,2.46398176 C1.41955167,2.05972644 0.0645455927,2.21474164 0.0801930091,5.29726444 C0.0881671733,6.87629179 1.55210334,8.92370821 3.09066565,8.57340426 C3.36660182,8.5106383 3.65562766,8.5106383 3.93156383,8.57340426 C5.47012614,8.92370821 6.93406231,6.87629179 6.94203647,5.29726444 C6.95768389,2.21489362 5.60282827,2.05972644 3.98452432,2.46398176 Z" id="path-3"></path>
        <mask id="mask-4" maskContentUnits="userSpaceOnUse" maskUnits="objectBoundingBox" x="-1" y="-1" width="8.86211184" height="8.31068786">
            <rect x="-0.919941171" y="1.30229814" width="8.86211184" height="8.31068786" fill="white"></rect>
            <use xlink:href="#path-3" fill="black"></use>
        </mask>
        <path d="M3.98452432,2.46398176 C3.67383283,2.54164134 3.34854711,2.54164134 3.03785562,2.46398176 C1.41955167,2.05972644 0.0645455927,2.21474164 0.0801930091,5.29726444 C0.0881671733,6.87629179 1.55210334,8.92370821 3.09066565,8.57340426 C3.36660182,8.5106383 3.65562766,8.5106383 3.93156383,8.57340426 C5.47012614,8.92370821 6.93406231,6.87629179 6.94203647,5.29726444 C6.95768389,2.21489362 5.60282827,2.05972644 3.98452432,2.46398176 Z" id="path-5"></path>
        <mask id="mask-6" maskContentUnits="userSpaceOnUse" maskUnits="objectBoundingBox" x="-1" y="-1" width="8.86211184" height="8.31068786">
            <rect x="-0.919941171" y="1.30229814" width="8.86211184" height="8.31068786" fill="white"></rect>
            <use xlink:href="#path-5" fill="black"></use>
        </mask>
        <rect id="path-7" x="0" y="0" width="20.6066288" height="4.16295532" rx="1.0989011"></rect>
        <mask id="mask-8" maskContentUnits="userSpaceOnUse" maskUnits="objectBoundingBox" x="0" y="0" width="20.6066288" height="4.16295532" fill="white">
            <use xlink:href="#path-7"></use>
        </mask>
        <rect id="path-9" x="0" y="3.33036425" width="20.6066288" height="4.16295532" rx="1.0989011"></rect>
        <mask id="mask-10" maskContentUnits="userSpaceOnUse" maskUnits="objectBoundingBox" x="0" y="0" width="20.6066288" height="4.16295532" fill="white">
            <use xlink:href="#path-9"></use>
        </mask>
        <rect id="path-11" x="0" y="6.66072851" width="20.6066288" height="4.16295532" rx="1.0989011"></rect>
        <mask id="mask-12" maskContentUnits="userSpaceOnUse" maskUnits="objectBoundingBox" x="0" y="0" width="20.6066288" height="4.16295532" fill="white">
            <use xlink:href="#path-11"></use>
        </mask>
    </defs>
    <g id="Page-1" stroke="none" stroke-width="1" fill="none" fill-rule="evenodd">
        <g id="No-results" transform="translate(-42.000000, -521.000000)">
            <g id="Footer" transform="translate(0.000000, 508.000000)">
                <g id="harvest-basket" transform="translate(41.944684, 12.385552)">
                    <g id="apple" transform="translate(3.201234, 2.857143)">
                        <g id="Shape">
                            <use fill="#FFFFFF" fill-rule="evenodd" xlink:href="#path-1"></use>
                            <use stroke="#43AB5F" mask="url(#mask-2)" stroke-width="2" xlink:href="#path-1"></use>
                        </g>
                        <path d="M0.832472644,4.50972644 C0.749270517,4.50972644 0.682016717,4.44164134 0.682016717,4.35775076 C0.682016717,3.51975684 1.28940729,2.83799392 2.03612006,2.83799392 C2.11932219,2.83799392 2.18657599,2.90607903 2.18657599,2.9899696 C2.18657599,3.07386018 2.11932219,3.14194529 2.03612006,3.14194529 C1.45551064,3.14194529 0.982928571,3.68738602 0.982928571,4.35775076 C0.982928571,4.44164134 0.915524316,4.50972644 0.832472644,4.50972644 Z" id="Shape" fill="#FFFFFF"></path>
                        <path d="M3.62617704,3.0393617 C3.53631276,3.0393617 3.46201158,2.97446809 3.45916671,2.89224924 C3.43657514,2.24908815 3.16447215,1.44164134 2.46814955,1.10440729 C2.38665253,1.06489362 2.3556937,0.972948328 2.3992034,0.898784195 C2.44288045,0.824772036 2.54378949,0.796656535 2.62578855,0.836170213 C3.44812194,1.2343465 3.76825295,2.15425532 3.79368939,2.8825228 C3.7967016,2.96641337 3.72424121,3.03662614 3.63169942,3.03920973 C3.62969128,3.0393617 3.62801783,3.0393617 3.62617704,3.0393617 Z" id="Shape" fill="#FFFFFF"></path>
                        <path d="M3.48696657,4.47412614 C3.23420061,4.47412614 2.99632979,4.2107116 2.81743769,3.73214168 C2.75860942,3.57529944 2.75860942,3.32073242 2.81743769,3.16348801 C2.87626596,3.00624361 2.9713541,3.00624361 3.03018237,3.16348801 C3.15235258,3.49004161 3.31469453,3.66980695 3.48696657,3.66980695 C3.6592386,3.66980695 3.82158055,3.49004161 3.9436003,3.16348801 C4.00242857,3.00624361 4.09751672,3.00624361 4.15634498,3.16348801 C4.21517325,3.32033026 4.21517325,3.57489728 4.15634498,3.73214168 C3.97745289,4.2107116 3.73973252,4.47412614 3.48696657,4.47412614 Z" id="Shape" fill="#FFFFFF"></path>
                        <path d="M3.35591945,1.98176292 L3.44754711,1.36079027 C3.54429027,0.705015198 4.05403495,0.190121581 4.70325228,0.0924012158 L5.31786474,-1.13686838e-13 L5.22623708,0.620972644 C5.12949392,1.27674772 4.61974924,1.79164134 3.97053191,1.8893617 L3.35591945,1.98176292 Z" id="Shape" fill="#FFFFFF"></path>
                    </g>
                    <g id="apple-2" transform="translate(16.848116, 8.831090) rotate(29.000000) translate(-16.848116, -8.831090) translate(13.348116, 4.331090)">
                        <g id="Shape">
                            <use fill="#FFFFFF" fill-rule="evenodd" xlink:href="#path-3"></use>
                            <use stroke="#43AB5F" mask="url(#mask-4)" stroke-width="2" xlink:href="#path-3"></use>
                        </g>
                        <path d="M0.832472644,4.50972644 C0.749270517,4.50972644 0.682016717,4.44164134 0.682016717,4.35775076 C0.682016717,3.51975684 1.28940729,2.83799392 2.03612006,2.83799392 C2.11932219,2.83799392 2.18657599,2.90607903 2.18657599,2.9899696 C2.18657599,3.07386018 2.11932219,3.14194529 2.03612006,3.14194529 C1.45551064,3.14194529 0.982928571,3.68738602 0.982928571,4.35775076 C0.982928571,4.44164134 0.915524316,4.50972644 0.832472644,4.50972644 Z" id="Shape" fill="#FFFFFF"></path>
                        <path d="M3.62617704,3.0393617 C3.53631276,3.0393617 3.46201158,2.97446809 3.45916671,2.89224924 C3.43657514,2.24908815 3.16447215,1.44164134 2.46814955,1.10440729 C2.38665253,1.06489362 2.3556937,0.972948328 2.3992034,0.898784195 C2.44288045,0.824772036 2.54378949,0.796656535 2.62578855,0.836170213 C3.44812194,1.2343465 3.76825295,2.15425532 3.79368939,2.8825228 C3.7967016,2.96641337 3.72424121,3.03662614 3.63169942,3.03920973 C3.62969128,3.0393617 3.62801783,3.0393617 3.62617704,3.0393617 Z" id="Shape" fill="#FFFFFF"></path>
                        <path d="M3.48696657,4.47412614 C3.23420061,4.47412614 2.99632979,4.2107116 2.81743769,3.73214168 C2.75860942,3.57529944 2.75860942,3.32073242 2.81743769,3.16348801 C2.87626596,3.00624361 2.9713541,3.00624361 3.03018237,3.16348801 C3.15235258,3.49004161 3.31469453,3.66980695 3.48696657,3.66980695 C3.6592386,3.66980695 3.82158055,3.49004161 3.9436003,3.16348801 C4.00242857,3.00624361 4.09751672,3.00624361 4.15634498,3.16348801 C4.21517325,3.32033026 4.21517325,3.57489728 4.15634498,3.73214168 C3.97745289,4.2107116 3.73973252,4.47412614 3.48696657,4.47412614 Z" id="Shape" fill="#FFFFFF"></path>
                        <path d="M3.35591945,1.98176292 L3.44754711,1.36079027 C3.54429027,0.705015198 4.05403495,0.190121581 4.70325228,0.0924012158 L5.31786474,-1.33226763e-13 L5.22623708,0.620972644 C5.12949392,1.27674772 4.61974924,1.79164134 3.97053191,1.8893617 L3.35591945,1.98176292 Z" id="Shape" fill="#FFFFFF"></path>
                    </g>
                    <g id="apple-3" transform="translate(12.197538, 5.967440) rotate(-19.000000) translate(-12.197538, -5.967440) translate(8.697538, 1.467440)">
                        <g id="Shape">
                            <use fill="#FFFFFF" fill-rule="evenodd" xlink:href="#path-5"></use>
                            <use stroke="#43AB5F" mask="url(#mask-6)" stroke-width="2" xlink:href="#path-5"></use>
                        </g>
                        <path d="M0.832472644,4.50972644 C0.749270517,4.50972644 0.682016717,4.44164134 0.682016717,4.35775076 C0.682016717,3.51975684 1.28940729,2.83799392 2.03612006,2.83799392 C2.11932219,2.83799392 2.18657599,2.90607903 2.18657599,2.9899696 C2.18657599,3.07386018 2.11932219,3.14194529 2.03612006,3.14194529 C1.45551064,3.14194529 0.982928571,3.68738602 0.982928571,4.35775076 C0.982928571,4.44164134 0.915524316,4.50972644 0.832472644,4.50972644 Z" id="Shape" fill="#FFFFFF"></path>
                        <path d="M3.62617704,3.0393617 C3.53631276,3.0393617 3.46201158,2.97446809 3.45916671,2.89224924 C3.43657514,2.24908815 3.16447215,1.44164134 2.46814955,1.10440729 C2.38665253,1.06489362 2.3556937,0.972948328 2.3992034,0.898784195 C2.44288045,0.824772036 2.54378949,0.796656535 2.62578855,0.836170213 C3.44812194,1.2343465 3.76825295,2.15425532 3.79368939,2.8825228 C3.7967016,2.96641337 3.72424121,3.03662614 3.63169942,3.03920973 C3.62969128,3.0393617 3.62801783,3.0393617 3.62617704,3.0393617 Z" id="Shape" fill="#FFFFFF"></path>
                        <path d="M3.48696657,4.47412614 C3.23420061,4.47412614 2.99632979,4.2107116 2.81743769,3.73214168 C2.75860942,3.57529944 2.75860942,3.32073242 2.81743769,3.16348801 C2.87626596,3.00624361 2.9713541,3.00624361 3.03018237,3.16348801 C3.15235258,3.49004161 3.31469453,3.66980695 3.48696657,3.66980695 C3.6592386,3.66980695 3.82158055,3.49004161 3.9436003,3.16348801 C4.00242857,3.00624361 4.09751672,3.00624361 4.15634498,3.16348801 C4.21517325,3.32033026 4.21517325,3.57489728 4.15634498,3.73214168 C3.97745289,4.2107116 3.73973252,4.47412614 3.48696657,4.47412614 Z" id="Shape" fill="#FFFFFF"></path>
                        <path d="M3.35591945,1.98176292 L3.44754711,1.36079027 C3.54429027,0.705015198 4.05403495,0.190121581 4.70325228,0.0924012158 L5.31786474,-2.11386464e-13 L5.22623708,0.620972644 C5.12949392,1.27674772 4.61974924,1.79164134 3.97053191,1.8893617 L3.35591945,1.98176292 Z" id="Shape" fill="#FFFFFF"></path>
                    </g>
                    <g id="basket" transform="translate(0.865819, 8.002665)">
                        <use id="Rectangle-10" stroke="#43AB5F" mask="url(#mask-8)" stroke-width="1.42857143" fill="#FFFFFF" xlink:href="#path-7"></use>
                        <use id="Rectangle-10-Copy" stroke="#43AB5F" mask="url(#mask-10)" stroke-width="1.42857143" fill="#FFFFFF" xlink:href="#path-9"></use>
                        <use id="Rectangle-10-Copy-2" stroke="#43AB5F" mask="url(#mask-12)" stroke-width="1.42857143" fill="#FFFFFF" xlink:href="#path-11"></use>
                        <ellipse id="Oval-2" fill="#43AB5F" cx="1.96555536" cy="1.98540946" rx="0.317025059" ry="0.320227332"></ellipse>
                        <ellipse id="Oval-2-Copy" fill="#43AB5F" cx="1.96555536" cy="5.31577371" rx="0.317025059" ry="0.320227332"></ellipse>
                        <ellipse id="Oval-2-Copy-2" fill="#43AB5F" cx="1.96555536" cy="8.64613797" rx="0.317025059" ry="0.320227332"></ellipse>
                        <ellipse id="Oval-2-Copy-5" fill="#43AB5F" cx="18.4508584" cy="1.98540946" rx="0.317025059" ry="0.320227332"></ellipse>
                        <ellipse id="Oval-2-Copy-4" fill="#43AB5F" cx="18.4508584" cy="5.31577371" rx="0.317025059" ry="0.320227332"></ellipse>
                        <ellipse id="Oval-2-Copy-3" fill="#43AB5F" cx="18.4508584" cy="8.64613797" rx="0.317025059" ry="0.320227332"></ellipse>
                    </g>
                </g>
            </g>
        </g>
    </g>
</svg>