<?xml version="1.0" encoding="UTF-8"?>
<svg width="18px" height="17px" viewBox="0 0 18 17" version="1.1" xmlns="http://www.w3.org/2000/svg" xmlns:xlink="http://www.w3.org/1999/xlink">
    <!-- Generator: Sketch 42 (36781) - http://www.bohemiancoding.com/sketch -->
    <title>Combined Shape</title>
    <desc>Created with Sketch.</desc>
    <defs></defs>
    <g id="Page-1" stroke="none" stroke-width="1" fill="none" fill-rule="evenodd">
        <g id="PLANT-A-TREE" transform="translate(-21.000000, -51.000000)" fill="#3EAC5C">
            <g id="Navbar">
                <g id="Search-bar" transform="translate(12.000000, 40.000000)">
                    <path d="M16.3168494,22.2312761 C13.4775909,21.7564929 11.3137085,19.2878016 11.3137085,16.3137085 C11.3137085,13 14,10.3137085 17.3137085,10.3137085 C20.627417,10.3137085 23.3137085,13 23.3137085,16.3137085 C23.3137085,19.2878095 21.1498146,21.756506 18.3105448,22.2312799 C18.3126406,22.2576609 18.3137085,22.2843319 18.3137085,22.3112531 L18.3137085,29.3161639 C18.3137085,29.8670925 17.8698437,30.3137085 17.3137085,30.3137085 C16.7614237,30.3137085 16.3137085,29.8673971 16.3137085,29.3161639 L16.3137085,22.3112531 C16.3137085,22.2843318 16.3147684,22.2576594 16.3168494,22.2312761 Z M17.3137085,21.3137085 C20.0751322,21.3137085 22.3137085,19.0751322 22.3137085,16.3137085 C22.3137085,13.5522847 20.0751322,11.3137085 17.3137085,11.3137085 C14.5522847,11.3137085 12.3137085,13.5522847 12.3137085,16.3137085 C12.3137085,19.0751322 14.5522847,21.3137085 17.3137085,21.3137085 Z" id="Combined-Shape" transform="translate(17.313708, 20.313708) rotate(45.000000) translate(-17.313708, -20.313708) "></path>
                </g>
            </g>
        </g>
    </g>
</svg>