<?xml version="1.0" encoding="UTF-8"?>
<svg width="18px" height="17px" viewBox="0 0 18 17" version="1.1" xmlns="http://www.w3.org/2000/svg" xmlns:xlink="http://www.w3.org/1999/xlink">
    <!-- Generator: Sketch 43.2 (39069) - http://www.bohemiancoding.com/sketch -->
    <title>magnifier_icon</title>
    <desc>Created with Sketch.</desc>
    <defs></defs>
    <g id="Page-1" stroke="none" stroke-width="1" fill="none" fill-rule="evenodd">
        <g id="magnifier_icon" transform="translate(-3.000000, -2.000000)" fill-rule="nonzero" fill="#9D9D9D">
            <path d="M10.3168489,13.2312763 C7.4775904,12.7564931 5.313708,10.2878018 5.313708,7.31370871 C5.313708,4.00000021 7.9999995,1.31370871 11.313708,1.31370871 C14.6274165,1.31370871 17.313708,4.00000021 17.313708,7.31370871 C17.313708,10.2878097 15.1498141,12.7565062 12.3105443,13.2312801 C12.3126401,13.2576611 12.313708,13.2843321 12.313708,13.3112533 L12.313708,20.3161641 C12.313708,20.8670927 11.8698432,21.3137087 11.313708,21.3137087 C10.7614232,21.3137087 10.313708,20.8673973 10.313708,20.3161641 L10.313708,13.3112533 C10.313708,13.284332 10.3147679,13.2576596 10.3168489,13.2312763 Z M11.313708,12.3137087 C14.0751317,12.3137087 16.313708,10.0751324 16.313708,7.31370871 C16.313708,4.55228491 14.0751317,2.31370871 11.313708,2.31370871 C8.5522842,2.31370871 6.313708,4.55228491 6.313708,7.31370871 C6.313708,10.0751324 8.5522842,12.3137087 11.313708,12.3137087 Z" id="Combined-Shape" transform="translate(11.313708, 11.313709) rotate(45.000000) translate(-11.313708, -11.313709) "></path>
        </g>
    </g>
</svg>