<?xml version="1.0" encoding="UTF-8"?>
<svg width="69px" height="89px" viewBox="0 0 69 89" version="1.1" xmlns="http://www.w3.org/2000/svg" xmlns:xlink="http://www.w3.org/1999/xlink">
    <!-- Generator: Sketch 42 (36781) - http://www.bohemiancoding.com/sketch -->
    <title>plant_seed</title>
    <desc>Created with Sketch.</desc>
    <defs></defs>
    <g id="Page-1" stroke="none" stroke-width="1" fill="none" fill-rule="evenodd">
        <g id="A4" transform="translate(-863.000000, -691.000000)" fill-rule="nonzero">
            <g id="plant_seed" transform="translate(897.500000, 735.500000) scale(-1, 1) translate(-897.500000, -735.500000) translate(863.000000, 691.000000)">
                <g id="weed" transform="translate(9.347826, 0.828546)">
                    <g id="Group" transform="translate(0.376362, 0.000000)" fill="#91CF96">
                        <path d="M24.8746391,32.2402556 C24.3661897,32.2402556 23.9534859,31.8275518 23.9534859,31.3191024 C23.9534859,24.2465608 30.9137228,11.0538383 44.21875,11.0538383 C44.7271994,11.0538383 45.1399032,11.4665421 45.1399032,11.9749915 C45.1399032,19.0475331 38.1797724,32.2402556 24.8746391,32.2402556" id="Shape"></path>
                        <path d="M16.5842604,16.5806513 C5.58201002,16.5806513 0.00360903533,11.311672 0.00360903533,0.921153193 C0.00360903533,0.412703804 0.41631284,-3.77113799e-16 0.924762228,-3.77113799e-16 C11.9270126,-3.77113799e-16 17.5054136,5.26897928 17.5054136,15.6594981 C17.5054136,16.1680537 17.0928159,16.5806513 16.5842604,16.5806513" id="Shape"></path>
                    </g>
                    <g id="Group" transform="translate(7.912877, 7.961107)" fill="#5ABA63">
                        <path d="M12.7345873,41.9383704 C12.6479704,41.9383704 12.5605044,41.9255265 12.4729322,41.8997325 C11.9856063,41.756008 11.706543,41.2438434 11.8511167,40.7556683 C16.4964759,25.0463867 10.8968453,11.452106 8.3313519,8.27774711 C8.01173998,7.88160241 8.07245669,7.30129076 8.46860139,6.98167884 C8.86474609,6.6629161 9.44314708,6.72373896 9.76371433,7.11988366 C12.9647164,11.0799507 18.3782694,25.179921 13.6168903,41.2779169 C13.499172,41.678626 13.1325365,41.9383704 12.7345873,41.9383704" id="Shape"></path>
                        <path d="M14.5607592,28.018215 C14.4640583,28.018215 14.3645975,28.0025051 14.2669412,27.9693869 C13.785135,27.8072987 13.5253906,27.284944 13.6875849,26.8032439 C14.0422257,25.7494056 15.871582,23.4760318 19.1269319,20.0484035 C24.0090014,14.904679 24.3240489,14.9397079 24.7542672,14.9875807 C25.2599567,15.0456437 25.622877,15.5025051 25.5649202,16.0073454 C25.5298913,16.3141135 25.3475289,16.5683381 25.0970194,16.7083475 C24.1095236,17.495011 16.0172172,25.6554645 15.4341457,27.3900306 C15.3050696,27.7750297 14.9457583,28.018215 14.5607592,28.018215" id="Shape"></path>
                        <path d="M9.04827615,8.61954399 C8.79861583,8.61954399 8.54906165,8.51912789 8.3675484,8.32020635 C5.42172639,5.09521484 0.543265965,1.72660496 0.49443784,1.69253142 C0.0753651495,1.40423319 -0.0305706522,0.830290421 0.257727582,0.411217731 C0.546025815,-0.00700577446 1.11901325,-0.112941576 1.53904127,0.175356658 C1.74539317,0.317170516 6.64126189,3.69873047 9.72804857,7.07657524 C10.0706946,7.45244565 10.0449006,8.03551715 9.66913638,8.37816321 C9.4921875,8.54035751 9.27023183,8.61954399 9.04827615,8.61954399" id="Shape"></path>
                    </g>
                </g>
                <g id="hand" transform="translate(0.000000, 43.000000)">
                    <path d="M53.4875887,22.4523787 C53.4875887,10.2759654 43.6168284,0.405010272 31.4402202,0.405010272 C19.2636121,0.405010272 9.39304676,10.2759654 9.39304676,22.4523787 C9.39304676,26.122944 10.2912924,29.5835678 11.8782319,32.6280122 L51.0025984,32.6280122 C52.5893431,29.5835678 53.4875887,26.122944 53.4875887,22.4523787 Z" id="Shape" fill="#B9873C"></path>
                    <path d="M38.2240409,29.2361994 C26.5072768,29.2361994 16.4234561,22.2465307 11.9133197,12.2096886 C10.3045477,15.2703124 9.39285182,18.7545229 9.39285182,22.4523787 C9.39285182,26.122944 10.2910974,29.5835678 11.878037,32.6280122 L51.0024035,32.6280122 C52.2232612,30.285907 53.0343723,27.6966282 53.3445087,24.9554976 C48.9484074,27.6691428 43.7696549,29.2361994 38.2240409,29.2361994 Z" id="Shape" fill="#A3682D"></path>
                    <path d="M2.02540543,21.345751 C3.37628262,20.1163163 5.21273487,20.5747958 6.7712144,21.5266477 C9.6755029,23.3003319 19.8948011,29.8533534 19.8948011,29.8533534 L33.0860292,28.6541331 L35.7025984,26.0375639 C36.1515263,25.588636 35.9679006,24.8241136 35.3630273,24.6307413 C33.6053275,24.0689479 30.3647816,23.0494547 27.3256004,22.1816185 C25.9024035,21.7751857 24.872384,20.4812286 24.8979201,19.0015015 C24.9298889,17.1438017 26.4528908,15.6547179 28.3148791,15.668753 C28.3148791,15.668753 43.749382,18.7502344 50.4439239,19.885907 C52.5271598,20.2393183 54.4480175,21.2348348 55.9421696,22.7291818 L67.8634171,34.6504294 C68.5256004,35.3126126 68.5256004,36.3866867 67.8634171,37.0488699 L59.4688752,45.4434118 C58.806692,46.1055951 57.7326179,46.1055951 57.0704347,45.4434118 L51.0743333,39.4473105 L21.5435341,38.2660239 C21.2487972,38.2541331 20.9624425,38.165829 20.7125399,38.0094937 L1.90669198,26.2556925 C0.543729018,24.8927296 0.583105236,22.6582266 2.02540543,21.345751 Z" id="Shape" fill="#FFE5BA"></path>
                    <path d="M21.9006491,34.8539381 L1.18700387,22.5262578 C0.659908355,23.7623202 0.898504846,25.2471155 1.90688691,26.2556925 L20.7127349,38.0094937 C20.9626374,38.165829 21.249382,38.2541331 21.543729,38.2660239 L51.0745282,39.4473105 L57.0706296,45.4434118 C57.7328128,46.1055951 58.8068869,46.1055951 59.4690701,45.4434118 L61.9000643,43.0124177 L53.6994795,35.7020863 L21.9006491,34.8539381 Z" id="Shape" fill="#FFD686"></path>
                </g>
            </g>
        </g>
    </g>
</svg>