<?xml version="1.0" encoding="UTF-8"?>
<svg width="80px" height="121px" viewBox="0 0 80 121" version="1.1" xmlns="http://www.w3.org/2000/svg" xmlns:xlink="http://www.w3.org/1999/xlink">
    <!-- Generator: Sketch 42 (36781) - http://www.bohemiancoding.com/sketch -->
    <title>plant_seed_arrow</title>
    <desc>Created with Sketch.</desc>
    <defs></defs>
    <g id="Page-1" stroke="none" stroke-width="1" fill="none" fill-rule="evenodd">
        <g id="A4" transform="translate(-663.000000, -668.000000)">
            <g id="plant_seed_arrow" transform="translate(663.000000, 668.000000)">
                <path d="M97.7342533,55.844526 C99.1653538,56.9439786 100.088163,58.6737768 100.088163,60.614762 C100.088163,62.5584943 99.1643664,64.2866692 97.7342703,65.384981 L64.2646435,98.8546078 C61.9180398,101.201212 58.1086808,101.196449 55.7668669,98.8546349 C53.4202781,96.5080462 53.4261881,92.6975642 55.766894,90.3568583 L79.5001739,66.6235783 L-14.087484,66.6235783 C-17.4015676,66.6235783 -20.0881632,63.926587 -20.0881632,60.614762 C-20.0881632,57.2961844 -17.3953421,54.6059457 -14.087484,54.6059457 L79.5001739,54.6059457 L55.766894,30.8726658 C53.4261881,28.5319598 53.4202781,24.7214778 55.7668669,22.3748891 C58.1086808,20.0330752 61.9180398,20.0283125 64.2646435,22.3749162 L97.7342533,55.844526 Z" id="Combined-Shape" fill="#EBEBEE" transform="translate(40.000000, 60.614762) rotate(90.000000) translate(-40.000000, -60.614762) "></path>
                <g id="plant_seed" transform="translate(39.500000, 47.000000) scale(-1, 1) translate(-39.500000, -47.000000) translate(16.000000, 16.000000)" fill-rule="nonzero">
                    <g id="weed" transform="translate(6.371805, 0.564766)">
                        <g id="Group" transform="translate(0.256541, 0.000000)" fill="#91CF96">
                            <path d="M16.9554236,21.9760853 C16.6088467,21.9760853 16.3275333,21.6947719 16.3275333,21.348195 C16.3275333,16.5273034 21.0718741,7.53468261 30.1410458,7.53468261 C30.4876227,7.53468261 30.768936,7.81599595 30.768936,8.16257283 C30.768936,12.9834644 26.0246676,21.9760853 16.9554236,21.9760853" id="Shape"></path>
                            <path d="M11.3044116,11.3019516 C3.80489316,11.3019516 0.00246004464,7.71043109 0.00246004464,0.627890218 C0.00246004464,0.28131334 0.283773385,0 0.630350262,0 C8.12986871,0 11.9323018,3.59152047 11.9323018,10.6740613 C11.9323018,11.0207106 11.6510608,11.3019516 11.3044116,11.3019516" id="Shape"></path>
                        </g>
                        <g id="Group" transform="translate(5.393693, 5.426569)" fill="#5ABA63">
                            <path d="M8.68033987,28.5866593 C8.6212988,28.5866593 8.56167889,28.5779045 8.50198663,28.5603224 C8.16980825,28.4623547 7.97958892,28.1132455 8.07813541,27.7804882 C11.2445746,17.0724927 7.42767067,7.80615577 5.6789407,5.6424018 C5.46108204,5.37237573 5.50246867,4.97681502 5.77249475,4.75895636 C6.04252083,4.54167653 6.43677916,4.58313552 6.65528901,4.8531616 C8.83720389,7.55248176 12.5272709,17.1635144 9.28174843,28.1364712 C9.20150756,28.4096085 8.95159597,28.5866593 8.68033987,28.5866593" id="Shape"></path>
                            <path d="M9.92512246,19.0981948 C9.85920773,19.0981948 9.7914118,19.0874864 9.72484588,19.0649118 C9.39642992,18.9544269 9.21937906,18.5983716 9.32993636,18.270028 C9.57167193,17.551695 10.8186251,16.0020839 13.0375854,13.6656927 C16.3653746,10.1595502 16.580122,10.1834271 16.8733738,10.2160589 C17.2180695,10.2556367 17.4654487,10.5670494 17.4259433,10.9111662 C17.4020664,11.12027 17.2777618,11.2935585 17.1070057,11.3889937 C16.4338941,11.9252111 10.9178952,17.4876615 10.5204533,18.6700023 C10.4324705,18.9324312 10.1875513,19.0981948 9.92512246,19.0981948" id="Shape"></path>
                            <path d="M6.16762133,5.8753825 C5.99744413,5.8753825 5.82733928,5.80693538 5.7036135,5.6713435 C3.69563824,3.47307655 0.370309073,1.1769143 0.337026116,1.15368858 C0.0513715204,0.957174428 -0.0208380252,0.565954976 0.175676129,0.280300381 C0.372190283,-0.00477538077 0.762758547,-0.0769849264 1.04906433,0.119529228 C1.189721,0.216194511 4.52691627,2.52118399 6.63097798,4.82364106 C6.86453751,5.07984748 6.84695542,5.47728939 6.59082137,5.71084893 C6.47020682,5.82140623 6.31891408,5.8753825 6.16762133,5.8753825" id="Shape"></path>
                        </g>
                    </g>
                    <g id="hand" transform="translate(0.000000, 29.310303)">
                        <path d="M36.4590102,15.3043262 C36.4590102,7.00445726 29.730755,0.27606916 21.4307532,0.27606916 C13.1307514,0.27606916 6.40262903,7.00445726 6.40262903,15.3043262 C6.40262903,17.8063118 7.01490464,20.165194 8.09661813,22.2403937 L34.765154,22.2403937 C35.8467346,20.165194 36.4590102,17.8063118 36.4590102,15.3043262 Z" id="Shape" fill="#B9873C"></path>
                        <path d="M26.0548425,19.9284155 C18.0682865,19.9284155 11.1948018,15.164013 8.12053514,8.32255059 C7.02393996,10.4087788 6.40249615,12.7837384 6.40249615,15.3043262 C6.40249615,17.8063118 7.01477177,20.165194 8.09648525,22.2403937 L34.7650211,22.2403937 C35.5972004,20.6439329 36.1500821,18.87899 36.361482,17.0105395 C33.3649456,18.860255 29.8349269,19.9284155 26.0548425,19.9284155 Z" id="Shape" fill="#A3682D"></path>
                        <path d="M1.38058715,14.5500101 C2.30139226,13.7119844 3.55318231,14.0245001 4.61549644,14.6733156 C6.59516101,15.8823208 13.5609919,20.3490892 13.5609919,20.3490892 L22.5525941,19.5316588 L24.3361392,17.7481137 C24.6421441,17.4421088 24.5169784,16.9209836 24.1046756,16.7891743 C22.906566,16.4062363 20.6976967,15.7113141 18.6260844,15.1197666 C17.6559837,14.8427278 16.9538864,13.9607214 16.9712927,12.9520877 C16.9930837,11.6858145 18.0312151,10.670803 19.3004114,10.6803698 C19.3004114,10.6803698 29.8211082,12.7808153 34.384342,13.5549293 C35.8043484,13.7958268 37.1136721,14.4744057 38.1321384,15.4930049 L46.2580775,23.618944 C46.7094447,24.0703112 46.7094447,24.8024376 46.2580775,25.2538049 L40.5360642,30.9758181 C40.084697,31.4271853 39.3525706,31.4271853 38.9012033,30.9758181 L34.814051,26.8886658 L14.6848259,26.0834596 C14.483923,26.0753544 14.2887336,26.0151632 14.1183913,25.9085996 L1.29966791,17.8967979 C0.370624706,16.9677547 0.397464913,15.4446394 1.38058715,14.5500101 Z" id="Shape" fill="#FFE5BA"></path>
                        <path d="M14.928248,23.7576626 L0.809103334,15.3546848 C0.449816604,16.1972281 0.612452313,17.2093165 1.29980078,17.8967979 L14.1185242,25.9085996 C14.2888665,26.0151632 14.4843216,26.0753544 14.6849588,26.0834596 L34.8141839,26.8886658 L38.9013362,30.9758181 C39.3527034,31.4271853 40.0848299,31.4271853 40.5361971,30.9758181 L42.1932477,29.3187675 L36.6034424,24.3357901 L14.928248,23.7576626 Z" id="Shape" fill="#FFD686"></path>
                    </g>
                </g>
            </g>
        </g>
    </g>
</svg>