<?xml version="1.0" encoding="UTF-8"?>
<svg width="21px" height="21px" viewBox="0 0 21 21" version="1.1" xmlns="http://www.w3.org/2000/svg" xmlns:xlink="http://www.w3.org/1999/xlink">
    <!-- Generator: Sketch 42 (36781) - http://www.bohemiancoding.com/sketch -->
    <title>profile icon</title>
    <desc>Created with Sketch.</desc>
    <defs></defs>
    <g id="Page-1" stroke="none" stroke-width="1" fill="none" fill-rule="evenodd">
        <g id="No-results" transform="translate(-258.000000, -520.000000)" fill-rule="nonzero">
            <g id="Footer" transform="translate(0.000000, 508.000000)">
                <g id="profile-icon" transform="translate(258.377894, 12.385552)">
                    <polygon id="Shape" fill="#43AB5F" points="19.4244922 15.963125 17.7057813 15.0519141 14.6321875 13.8019531 6.2215625 13.8019531 4.63289063 14.7394141 2.52359375 15.5987891 1.53425781 16.8749609 1.53425781 19.5567578 19.7369531 19.5567578"></polygon>
                    <path d="M18.1300781,15.0915625 L18.0592578,15.0714062 C17.0253516,14.7930859 16.6750391,14.5269531 16.2148438,14.3517969 C15.1235547,13.9355859 14.5718359,13.5974609 14.2935156,13.3557812 L14.0554688,11.5980469 C14.1275,11.4997656 14.1982813,11.3996875 14.2678906,11.2971484 C15.2712891,10.8064063 15.4091797,10.0349609 15.2090234,9.39660156 C15.4103906,8.78503906 15.5263672,8.14480469 15.5263672,7.49476562 C15.5263672,7.48011719 16.1159766,4.96742187 14.7061328,2.60300781 C14.3948438,2.08238281 13.9957031,1.57945312 13.476875,1.10953125 C12.9349609,0.618867188 11.5958984,0 9.981875,0 C8.87660156,0 7.641875,0.289921875 6.44503906,1.10957031 C4.12332031,2.70007812 4.35769531,6.70992187 4.35769531,6.70992187 C4.35769531,6.70992187 4.52066406,6.75144531 4.81421875,6.78988281 C4.79164063,7.01875 4.78003906,7.25375 4.78003906,7.49480469 C4.78003906,8.14484375 4.89601563,8.78503906 5.09679688,9.39664062 C4.89785156,10.035625 5.03515625,10.8064844 6.03851563,11.2971875 C6.1075,11.3997266 6.17890625,11.4998437 6.25152344,11.5980859 L6.01535156,13.3558203 C5.73398438,13.5975391 5.18285156,13.935625 4.09097656,14.3518359 C3.63078125,14.5269922 3.28109375,14.793125 2.2471875,15.0714453 L2.17636719,15.0916016 C1.23523438,15.4028906 0.60171875,16.275625 0.60171875,17.2607031 L0.60171875,19.9992187 L8.48652344,19.9992187 L10.1533203,19.9992187 L11.8191797,19.9992187 L19.7046094,19.9992187 L19.7046094,17.2607031 C19.7047266,16.2755859 19.0712109,15.4028516 18.1300781,15.0915625 Z M7.81949219,15.5902344 L6.83992188,13.4760547 L6.92964844,12.8095312 C7.47710938,13.4986328 8.40542969,14.2047266 9.15429688,14.6289062 L7.81949219,15.5902344 Z M13.3767969,12.8101562 L13.4658984,13.4760547 L12.4869531,15.5902344 L11.1515234,14.6289453 C11.9010547,14.2047266 12.83,13.4986328 13.3767969,12.8101562 Z M10.1533984,19.1655078 L9.3196875,19.1655078 L9.3196875,15.5365234 L10.0496484,15.0116016 C10.0875,15.0183203 10.1222656,15.0225781 10.1533984,15.0225781 C10.1839063,15.0225781 10.2193359,15.0183203 10.2571484,15.0116016 L10.9867969,15.5365234 L10.9867969,19.1655078 L10.1533984,19.1655078 Z" id="Shape" fill="#FFFFFF"></path>
                </g>
            </g>
        </g>
    </g>
</svg>