<?xml version="1.0" encoding="UTF-8"?>
<svg width="19px" height="18px" viewBox="0 0 19 18" version="1.1" xmlns="http://www.w3.org/2000/svg" xmlns:xlink="http://www.w3.org/1999/xlink">
    <!-- Generator: Sketch 42 (36781) - http://www.bohemiancoding.com/sketch -->
    <title>Combined-Shape</title>
    <desc>Created with Sketch.</desc>
    <defs></defs>
    <g id="Page-1" stroke="none" stroke-width="1" fill="none" fill-rule="evenodd">
        <g id="PROFILE" transform="translate(-41.000000, -189.000000)" fill-rule="nonzero" fill="#D13834">
            <g id="Plant-a-new-tree" transform="translate(11.000000, 155.000000)">
                <g id="Avatar-Copy" transform="translate(12.000000, 15.271722)">
                    <path d="M29.1173548,26.2592017 L29.1173548,17.1375374 C29.1173548,16.3411439 28.4726448,15.6992018 27.6773548,15.6992018 C26.883683,15.6992018 26.2373548,16.3431666 26.2373548,17.1375374 L26.2373548,26.2592017 L17.1156905,26.2592017 C16.319297,26.2592017 15.6773549,26.9039117 15.6773549,27.6992017 C15.6773549,28.4928735 16.3213197,29.1392017 17.1156905,29.1392017 L26.2373548,29.1392017 L26.2373548,38.2608661 C26.2373548,39.0572599 26.8820648,39.6992018 27.6773548,39.6992018 C28.4710266,39.6992018 29.1173548,39.055237 29.1173548,38.2608661 L29.1173548,29.1392017 L38.2390193,29.1392017 C39.0354127,29.1392017 39.6773549,28.4944917 39.6773549,27.6992017 C39.6773549,26.9055299 39.0333901,26.2592017 38.2390193,26.2592017 L29.1173548,26.2592017 Z" id="Combined-Shape" transform="translate(27.677355, 27.699202) rotate(45.000000) translate(-27.677355, -27.699202) "></path>
                </g>
            </g>
        </g>
    </g>
</svg>