<?xml version="1.0" encoding="UTF-8"?>
<svg width="20px" height="20px" viewBox="0 0 20 20" version="1.1" xmlns="http://www.w3.org/2000/svg" xmlns:xlink="http://www.w3.org/1999/xlink">
    <!-- Generator: Sketch 42 (36781) - http://www.bohemiancoding.com/sketch -->
    <title>Avatar Copy</title>
    <desc>Created with Sketch.</desc>
    <defs></defs>
    <g id="Page-1" stroke="none" stroke-width="1" fill="none" fill-rule="evenodd">
        <g id="A4" transform="translate(-413.000000, -293.000000)">
            <g id="Plant-a-new-tree" transform="translate(405.000000, 283.000000)">
                <g id="Avatar-Copy" transform="translate(8.000000, 10.000000)">
                    <rect id="Mask" fill="#43AB5F" x="0.0637690284" y="0.0711435025" width="19.7755792" height="19.6428571" rx="9.82142857"></rect>
                    <path d="M10.4693192,9.37828632 L10.4693192,6.12054907 C10.4693192,5.83612281 10.2375098,5.6068578 9.95155856,5.6068578 C9.66618912,5.6068578 9.43379794,5.83684522 9.43379794,6.12054907 L9.43379794,9.37828632 L6.15404895,9.37828632 C5.86770088,9.37828632 5.63688679,9.60853988 5.63688679,9.89257204 C5.63688679,10.1760262 5.86842818,10.4068577 6.15404895,10.4068577 L9.43379794,10.4068577 L9.43379794,13.664595 C9.43379794,13.9490214 9.66560726,14.1782863 9.95155856,14.1782863 C10.236928,14.1782863 10.4693192,13.9482989 10.4693192,13.664595 L10.4693192,10.4068577 L13.7490682,10.4068577 C14.0354163,10.4068577 14.2662304,10.1766042 14.2662304,9.89257204 C14.2662304,9.60911783 14.034689,9.37828632 13.7490682,9.37828632 L10.4693192,9.37828632 Z" id="Combined-Shape" fill="#FFFFFF" fill-rule="nonzero"></path>
                </g>
            </g>
        </g>
    </g>
</svg>