<?xml version="1.0" encoding="UTF-8"?>
<svg width="89px" height="99px" viewBox="0 0 89 99" version="1.1" xmlns="http://www.w3.org/2000/svg" xmlns:xlink="http://www.w3.org/1999/xlink">
    <!-- Generator: Sketch 42 (36781) - http://www.bohemiancoding.com/sketch -->
    <title>weed copy</title>
    <desc>Created with Sketch.</desc>
    <defs></defs>
    <g id="Page-1" stroke="none" stroke-width="1" fill="none" fill-rule="evenodd">
        <g id="A4" transform="translate(-842.000000, -652.000000)" fill-rule="nonzero">
            <g id="weed-copy" transform="translate(841.411765, 652.000000)">
                <g id="Group" transform="translate(0.740398, 0.000000)" fill="#91CF96">
                    <path d="M48.934635,63.4246444 C47.9343879,63.4246444 47.1224963,62.6127528 47.1224963,61.6125057 C47.1224963,47.6990479 60.8150227,21.745664 86.9893381,21.745664 C87.9895851,21.745664 88.8014767,22.5575555 88.8014767,23.5578026 C88.8014767,37.4712604 75.1091591,63.4246444 48.934635,63.4246444" id="Shape"></path>
                    <path d="M32.625387,32.6182871 C10.9812095,32.6182871 0.00709987492,22.2528874 0.00709987492,1.81213866 C0.00709987492,0.811891579 0.818991454,0 1.81923854,0 C23.463416,0 34.4375256,10.3653997 34.4375256,30.8061484 C34.4375256,31.8066044 33.6258429,32.6182871 32.625387,32.6182871" id="Shape"></path>
                </g>
                <g id="Group" transform="translate(15.566607, 15.661489)" fill="#5ABA63">
                    <path d="M25.0521175,82.5032612 C24.8817205,82.5032612 24.7096529,82.477994 24.5373765,82.4272508 C23.5786846,82.1445087 23.0296972,81.1369529 23.3141099,80.1765904 C32.452693,49.2725055 21.4368194,22.529156 16.3898524,16.2843984 C15.7610959,15.5050827 15.8805408,14.3634646 16.6598565,13.734708 C17.4391722,13.107622 18.5770315,13.2272758 19.2076675,14.0065915 C25.5048389,21.7970336 36.1546513,49.5352008 26.7878281,81.2039841 C26.5562469,81.992279 25.8349831,82.5032612 25.0521175,82.5032612" id="Shape"></path>
                    <path d="M28.6446542,55.1188348 C28.4544193,55.1188348 28.2587551,55.0879295 28.0666408,55.0227777 C27.1188075,54.7039098 26.6078254,53.6763073 26.9269021,52.7286828 C27.6245692,50.6555193 31.2233705,46.1832246 37.6274577,39.4402228 C47.2317091,29.3212305 47.8514864,29.390141 48.6978332,29.4843188 C49.692651,29.5985433 50.4066061,30.4973039 50.2925904,31.4904511 C50.2236799,32.0939405 49.8649274,32.594064 49.3721125,32.8694974 C47.4294615,34.4170613 31.5098713,50.4707138 30.3628239,53.8830389 C30.108899,54.6404285 29.4020438,55.1188348 28.6446542,55.1188348" id="Shape"></path>
                    <path d="M17.8002217,16.9567983 C17.3090774,16.9567983 16.8181419,16.7592547 16.46106,16.3679263 C10.6658915,10.0235616 1.06873999,3.39666369 0.972682864,3.32963252 C0.148262094,2.7624778 -0.060140117,1.63338887 0.507014597,0.808968101 C1.07416931,-0.0137821101 2.20137886,-0.222184321 3.02767901,0.344970393 C3.4336248,0.623953713 13.0650228,7.27632769 19.137504,13.921393 C19.8115745,14.6608241 19.7608313,15.8078715 19.021609,16.481942 C18.6735063,16.8010187 18.236864,16.9567983 17.8002217,16.9567983" id="Shape"></path>
                </g>
            </g>
        </g>
    </g>
</svg>