<?xml version="1.0" encoding="UTF-8"?>
<svg width="11px" height="10px" viewBox="0 0 11 10" version="1.1" xmlns="http://www.w3.org/2000/svg" xmlns:xlink="http://www.w3.org/1999/xlink">
    <!-- Generator: Sketch 42 (36781) - http://www.bohemiancoding.com/sketch -->
    <title>Combined-Shape</title>
    <desc>Created with Sketch.</desc>
    <defs></defs>
    <g id="Page-1" stroke="none" stroke-width="1" fill="none" fill-rule="evenodd">
        <g id="A4" transform="translate(-832.000000, -281.000000)" fill-rule="nonzero" fill="#FFFFFF">
            <g id="Tree-1-Copy" transform="translate(758.000000, 240.000000)">
                <g id="Add-to-garden-button" transform="translate(66.000000, 34.000000)">
                    <g id="Group" transform="translate(8.500000, 4.000000)">
                        <path d="M5.59999994,7.39999996 L5.59999994,3.5993065 C5.59999994,3.26747586 5.33137079,3.00000001 4.99999995,3.00000001 C4.66930337,3.00000001 4.39999995,3.26831867 4.39999995,3.5993065 L4.39999995,7.39999996 L0.599306485,7.39999996 C0.267475843,7.39999996 0,7.66862911 0,7.99999996 C0,8.33069653 0.268318655,8.59999995 0.599306485,8.59999995 L4.39999995,8.59999995 L4.39999995,12.4006935 C4.39999995,12.7325242 4.66862909,13 4.99999995,13 C5.33069652,13 5.59999994,12.7316813 5.59999994,12.4006935 L5.59999994,8.59999995 L9.40069348,8.59999995 C9.73252408,8.59999995 10,8.33137081 10,7.99999996 C10,7.66930338 9.73168133,7.39999996 9.40069348,7.39999996 L5.59999994,7.39999996 Z" id="Combined-Shape"></path>
                    </g>
                </g>
            </g>
        </g>
    </g>
</svg>