<?xml version="1.0" encoding="UTF-8"?>
<svg width="20px" height="14px" viewBox="0 0 20 14" version="1.1" xmlns="http://www.w3.org/2000/svg" xmlns:xlink="http://www.w3.org/1999/xlink">
    <!-- Generator: Sketch 42 (36781) - http://www.bohemiancoding.com/sketch -->
    <title>Combined Shape</title>
    <desc>Created with Sketch.</desc>
    <defs></defs>
    <g id="Page-1" stroke="none" stroke-width="1" fill="none" fill-rule="evenodd">
        <g id="RUGBYRAMA-HARVESTED" transform="translate(-20.000000, -28.000000)" fill="#FFFFFF">
            <g id="Back-button" transform="translate(10.000000, 15.000000)">
                <path d="M26.573703,18.6588289 L10.9918031,18.6588289 C10.4553056,18.6588289 10,19.1065442 10,19.6588289 C10,20.2149641 10.4440454,20.6588289 10.9918031,20.6588289 L26.573703,20.6588289 L22.6207011,24.6118308 C22.2390521,24.9934798 22.2334312,25.6322657 22.6239555,26.0227899 C23.0172025,26.4160369 23.6461878,26.4147713 24.0349147,26.0260444 L29.6141434,20.4468157 C29.8471169,20.2637774 30,19.9788594 30,19.6588289 C30,19.3251825 29.8401769,19.0319451 29.5940198,18.8507186 L24.0349147,13.2916135 C23.6461878,12.9028865 23.0172025,12.9016209 22.6239555,13.2948679 C22.2334312,13.6853922 22.2390521,14.3241781 22.6207011,14.705827 L26.573703,18.6588289 Z" id="Combined-Shape" transform="translate(20.000000, 19.658829) scale(-1, 1) translate(-20.000000, -19.658829) "></path>
            </g>
        </g>
    </g>
</svg>