<?xml version="1.0" encoding="UTF-8"?>
<svg width="13px" height="15px" viewBox="0 0 13 15" version="1.1" xmlns="http://www.w3.org/2000/svg" xmlns:xlink="http://www.w3.org/1999/xlink">
    <!-- Generator: Sketch 42 (36781) - http://www.bohemiancoding.com/sketch -->
    <title>Apple</title>
    <desc>Created with Sketch.</desc>
    <defs></defs>
    <g id="Page-1" stroke="none" stroke-width="1" fill="none" fill-rule="evenodd">
        <g id="Atomic" transform="translate(-127.000000, -427.000000)" fill-rule="nonzero" fill="#9D9D9D">
            <g id="Content" transform="translate(29.000000, 30.000000)">
                <g id="Content-box" transform="translate(10.000000, 26.000000)">
                    <g id="Picked-Copy" transform="translate(88.000000, 370.000000)">
                        <g id="Apple" transform="translate(0.393083, 1.306176)">
                            <path d="M6.84211247,4.18876899 C6.30860181,4.32079028 5.75003038,4.32079028 5.21651975,4.18876899 C2.43761397,3.50153495 0.110835866,3.76506079 0.137705167,9.00534955 C0.151398176,11.6896961 2.66522797,15.1703039 5.30720365,14.5747872 C5.78103343,14.4680851 6.27734042,14.4680851 6.75117022,14.5747872 C9.3931459,15.1703039 11.9069757,11.6896961 11.9206687,9.00534955 C11.947538,3.76531914 9.62101823,3.50153495 6.84211247,4.18876899 Z" id="Shape"></path>
                            <path d="M1.42949848,7.66653495 C1.28662614,7.66653495 1.17113982,7.55079028 1.17113982,7.40817629 C1.17113982,5.98358663 2.21413374,4.82458965 3.49636778,4.82458965 C3.63924013,4.82458965 3.75472644,4.94033435 3.75472644,5.08294832 C3.75472644,5.22556232 3.63924013,5.34130699 3.49636778,5.34130699 C2.49936171,5.34130699 1.68785714,6.26855622 1.68785714,7.40817629 C1.68785714,7.55079028 1.57211246,7.66653495 1.42949848,7.66653495 Z" id="Shape"></path>
                            <path d="M6.22676865,5.16691489 C6.07245627,5.16691489 5.94486836,5.05659575 5.93998324,4.91682371 C5.90118962,3.82344984 5.43394207,2.45079028 4.23823661,1.8774924 C4.09829222,1.81031915 4.0451306,1.65401216 4.11984424,1.52793313 C4.19484522,1.40211246 4.36812338,1.35431611 4.50892984,1.42148936 C5.92101748,2.09838906 6.47073739,3.66223403 6.51441613,4.90028876 C6.51958862,5.04290273 6.39516168,5.16226444 6.23625154,5.16665654 C6.23280321,5.16691489 6.2299296,5.16691489 6.22676865,5.16691489 Z" id="Shape"></path>
                            <path d="M5.98772035,7.60601444 C5.55367781,7.60601444 5.14521276,7.15820972 4.83802432,6.34464087 C4.73700607,6.07800905 4.73700607,5.6452451 4.83802432,5.37792962 C4.93904254,5.11061414 5.10232524,5.11061414 5.20334346,5.37792962 C5.4131307,5.93307072 5.69189969,6.2386718 5.98772035,6.2386718 C6.28354104,6.2386718 6.56231003,5.93307072 6.77183892,5.37792962 C6.87285714,5.11061414 7.03613981,5.11061414 7.13715806,5.37792962 C7.23817629,5.64456144 7.23817629,6.07732539 7.13715806,6.34464087 C6.82996962,7.15820972 6.42176292,7.60601444 5.98772035,7.60601444 Z" id="Shape"></path>
                            <path d="M5.76268997,3.36899695 L5.92003038,2.31334346 C6.08615502,1.19852584 6.96147416,0.323206686 8.07629178,0.157082067 L9.13168692,0 L8.97434651,1.0556535 C8.80822188,2.17047112 7.93290273,3.04579028 6.81808511,3.21191489 L5.76268997,3.36899695 Z" id="Shape"></path>
                        </g>
                    </g>
                </g>
            </g>
        </g>
    </g>
</svg>