<?xml version="1.0" encoding="UTF-8"?>
<svg width="180px" height="181px" viewBox="0 0 180 181" version="1.1" xmlns="http://www.w3.org/2000/svg" xmlns:xlink="http://www.w3.org/1999/xlink">
    <!-- Generator: Sketch 41.2 (35397) - http://www.bohemiancoding.com/sketch -->
    <title>plus-sign</title>
    <desc>Created with Sketch.</desc>
    <defs></defs>
    <g id="Page-1" stroke="none" stroke-width="1" fill="none" fill-rule="evenodd">
        <g id="plus-sign" transform="translate(-0.500000, 0.932141)">
            <rect id="Rectangle-2" fill="#98C267" x="0.5" y="0" width="180" height="180"></rect>
            <path d="M95.842384,85.0747101 L95.842384,54.7773867 C95.842384,52.1321904 93.701,50 91.059469,50 C88.4233129,50 86.2765539,52.1389089 86.2765539,54.7773867 L86.2765539,85.0747101 L55.9792305,85.0747101 C53.3340342,85.0747101 51.2018438,87.2160941 51.2018438,89.8576252 C51.2018438,92.4937812 53.3407527,94.6405402 55.9792305,94.6405402 L86.2765539,94.6405402 L86.2765539,124.937864 C86.2765539,127.583061 88.4179379,129.715251 91.059469,129.715251 C93.695625,129.715251 95.842384,127.576342 95.842384,124.937864 L95.842384,94.6405402 L126.139708,94.6405402 C128.784904,94.6405402 130.917095,92.4991562 130.917095,89.8576252 C130.917095,87.2214691 128.778186,85.0747101 126.139708,85.0747101 L95.842384,85.0747101 Z" id="Combined-Shape" fill="#FFFFFF"></path>
        </g>
    </g>
</svg>