<?xml version="1.0" encoding="UTF-8"?>
<svg width="80px" height="73px" viewBox="0 0 80 73" version="1.1" xmlns="http://www.w3.org/2000/svg" xmlns:xlink="http://www.w3.org/1999/xlink">
    <!-- Generator: Sketch 41.2 (35397) - http://www.bohemiancoding.com/sketch -->
    <title>picking</title>
    <desc>Created with Sketch.</desc>
    <defs></defs>
    <g id="Page-1" stroke="none" stroke-width="1" fill="none" fill-rule="evenodd">
        <g id="picking" fill="#000000">
            <path d="M68.999,1.076 C67.788,4.104 68,9.118 68,10.619 C71.535,11.28 74.233,14.207 74.233,17.732 C74.233,22.78 78.761,30.275 79.413,34.499 C79.614,35.366 79.722,36.264 79.722,37.189 C79.722,44.005 73.917,49.531 66.761,49.531 C59.604,49.531 53.797,44.006 53.797,37.189 C53.797,36.263 53.908,35.366 54.109,34.499 C54.757,30.275 59.289,22.779 59.289,17.732 C59.289,14.207 61.983,11.28 65.519,10.719 C65.519,10.719 61.302,10.887 58.804,8.388 C56.308,5.893 56.475,1.674 56.475,1.674 C56.475,1.674 60.693,1.506 63.189,4.005 C65.417,6.232 65.526,9.825 65.521,10.574 C65.537,8.119 65.272,3.271 66.268,0.479 L68.999,1.076 Z" id="Shape"></path>
            <path d="M25.124,44.633 C25.146,44.352 25.079,44.92 25.124,44.633 L25.124,44.633 Z" id="Shape"></path>
            <path d="M43.129,28.934 C43.128,28.937 43.128,28.942 43.126,28.945 C43.642,29.293 44.051,29.8 44.27,30.422 C44.82,31.976 43.999,33.685 42.435,34.238 C42.32,34.281 31.298,39.135 25.781,41.942 C26.677,39.934 29.047,38.426 29.953,37.911 C33.84,35.695 36.166,34.341 37.997,33.276 C38.867,32.768 39.622,32.328 40.383,31.889 C41.694,31.135 42.63,30.09 43.129,28.934 Z" id="Shape"></path>
            <path d="M25.782,41.941 C25.733,42.034 25.825,41.847 25.782,41.941 L25.782,41.941 Z" id="Shape"></path>
            <path d="M41.324,26.225 C41.86,27.793 40.718,29.292 39.345,30.082 C38.579,30.521 37.822,30.964 36.947,31.473 C35.122,32.537 32.801,33.89 28.924,36.098 C28.876,36.125 24.239,38.804 23.372,42.42 C22.607,45.609 23.023,48.441 24.606,50.843 C25.769,52.609 27.262,53.547 29.171,53.718 C30.589,53.832 33.017,52.733 36.595,50.972 C38.579,49.995 40.63,48.988 41.57,48.832 C43.675,48.479 45.45,50.402 46.584,52.483 C44.441,53.772 38.494,57.401 32.575,61.431 C30.221,63.034 28.283,64.619 26.572,66.017 C24.477,67.729 22.668,69.206 20.758,70.183 C16.679,72.267 10.513,72.838 8.048,72.988 L7.927,72.996 L0,60.396 C1.314,59.655 4.968,57.261 8.924,51.765 C10.433,49.67 11.876,46.941 13.402,44.05 C15.371,40.323 17.409,36.472 19.476,34.241 C20.594,33.303 36.722,24.721 37.524,24.365 C39.065,23.84 40.804,24.705 41.324,26.225 Z" id="Shape"></path>
            <path d="M25.124,44.633 C28.14,42.957 36.887,38.981 41.051,37.123 C41.473,38.592 40.723,40.172 39.262,40.734 C38.454,41.042 31.695,43.634 25.254,47.01 C25.054,46.003 24.938,45.777 25.124,44.633 Z" id="Shape"></path>
            <path d="M26.345,49.699 C26.196,49.471 26.062,49.238 25.938,49.003 C30.39,46.65 35.037,44.671 37.747,43.572 C38.145,45.105 37.474,46.377 35.872,47.011 C35.841,47.023 31.841,48.722 27.369,50.837 C27.64,51.059 26.905,50.546 26.345,49.699 Z" id="Shape"></path>
        </g>
    </g>
</svg>