<?xml version="1.0" encoding="UTF-8"?>
<svg width="25px" height="25px" viewBox="0 0 25 25" version="1.1" xmlns="http://www.w3.org/2000/svg" xmlns:xlink="http://www.w3.org/1999/xlink">
    <!-- Generator: Sketch 41.2 (35397) - http://www.bohemiancoding.com/sketch -->
    <title>palm-tree</title>
    <desc>Created with Sketch.</desc>
    <defs></defs>
    <g id="Symbols" stroke="none" stroke-width="1" fill="none" fill-rule="evenodd">
        <g id="Bottom-Bar" transform="translate(-175.000000, -10.000000)" fill="#FFFFFF">
            <g id="palm-tree">
                <g transform="translate(175.500000, 10.497839)">
                    <path d="M21.8162272,7.11389452 C21.7795132,7.01369168 20.8682049,4.66059838 16.6561866,4.66059838 C16.1627282,4.66059838 15.7131339,4.69675456 15.3039047,4.76014199 L18.9684077,1.09563895 C19.1105984,0.953448276 19.1599899,0.743052738 19.0960446,0.552332657 C19.0352941,0.394117647 18.9364604,0.286206897 18.8124239,0.228752535 C18.7156694,0.183823529 16.4073529,-0.835649087 13.4290061,2.14269777 C12.8283469,2.743357 12.3555781,3.36855984 12.012931,4.01140974 C11.6913793,3.43275862 11.2273834,2.80425963 10.5656694,2.14254564 C7.77662272,-0.646348884 5.33128803,0.173478702 5.22860041,0.209736308 C5.07454361,0.264097363 4.95410751,0.386866126 4.90233266,0.5418357 C4.83559838,0.746298174 4.88544625,0.954665314 5.0265213,1.09568966 L8.68174442,4.75086207 C8.27418864,4.69340771 7.82560852,4.66064909 7.33098377,4.66064909 C3.38676471,4.66064909 2.23737323,6.96947262 2.19041582,7.06779919 C2.12053753,7.21399594 2.12185598,7.38514199 2.19320487,7.5306288 C2.2928499,7.72570994 2.47505071,7.83711968 2.67393509,7.83711968 L8.40238337,7.83711968 C8.19295132,8.17631846 8.07170385,8.57565923 8.07170385,9.00278905 C8.07170385,10.0931542 8.86014199,11.0021805 9.89675456,11.1913793 C9.81308316,11.4251521 9.76719067,11.6767748 9.76719067,11.9389959 C9.76719067,12.6949797 10.1464503,13.3637931 10.7243408,13.7660751 L10.7476182,22.6479209 L0.529817444,22.6479209 C0.237221095,22.6479209 -2.13505121e-15,22.885142 0,23.1777383 C-2.13505121e-15,23.4703347 0.237271805,23.7075558 0.529817444,23.7075558 L23.4482759,23.7075558 C23.7409229,23.7075558 23.9780933,23.470284 23.9780933,23.1777383 C23.9780933,22.8850406 23.7408722,22.6478702 23.4482759,22.6478702 L13.5855477,22.6478702 L13.5855477,13.4906187 C13.9764199,13.0894523 14.2179006,12.5420385 14.2179006,11.9389959 C14.2179006,11.6767748 14.1720081,11.4251521 14.0883367,11.1913793 C15.1249493,11.0022312 15.9133874,10.0931034 15.9133874,9.00278905 C15.9133874,8.57565923 15.79214,8.17636917 15.5827079,7.83711968 L21.3134888,7.83711968 C21.5147566,7.83711968 21.6986815,7.72307302 21.7881339,7.54279919 C21.8571501,7.38965517 21.863641,7.24310345 21.8162272,7.11389452 Z M14.1783469,2.89203854 C15.5774341,1.49295132 16.7370183,1.13351927 17.4802231,1.08514199 L12.9818966,5.58346856 C12.8602941,5.65897566 12.7475659,5.73600406 12.6433063,5.81338742 C12.6259635,5.69026369 12.6023834,5.56156187 12.5713996,5.42778905 C12.821856,4.56146045 13.3614097,3.70892495 14.1783469,2.89203854 Z M6.57114604,1.14158215 C7.34893509,1.21749493 8.51572008,1.59112576 9.81643002,2.8918357 C10.8341278,3.90953347 11.3014706,4.80030426 11.4993915,5.49650101 C11.5052231,5.5362069 11.5159736,5.57464503 11.5303245,5.61151116 C11.5600406,5.73037525 11.5818458,5.84290061 11.5973124,5.94903651 C11.4010142,5.78118661 11.165213,5.61191684 10.8832657,5.45360041 L6.57114604,1.14158215 Z M7.33098377,5.72023327 C8.69457404,5.72023327 9.62839757,5.98889452 10.2605477,6.3168357 C10.2936613,6.3398073 10.3286511,6.35882353 10.3651116,6.37332657 C10.6009635,6.50491886 10.7913793,6.6438641 10.9434077,6.77738337 L3.79858012,6.77738337 C4.40218053,6.28103448 5.49127789,5.72023327 7.33098377,5.72023327 Z M10.2971095,10.168357 C9.65436105,10.168357 9.13144016,9.64543611 9.13144016,9.00268763 C9.13144016,8.35993915 9.65436105,7.83701826 10.2971095,7.83701826 C10.939858,7.83701826 11.4627789,8.35993915 11.4627789,9.00268763 C11.4627789,9.64543611 10.939858,10.168357 10.2971095,10.168357 Z M11.7840771,22.6477688 L11.7840771,14.1542089 C11.8527383,14.1605984 11.922211,14.1643002 11.9925456,14.1643002 C12.1764199,14.1643002 12.3549189,14.1414807 12.5258114,14.0992394 L12.5258114,22.6477688 L11.7840771,22.6477688 Z M11.9925963,13.1045639 C11.3498479,13.1045639 10.826927,12.581643 10.826927,11.9388945 C10.826927,11.296146 11.3498479,10.7732252 11.9925963,10.7732252 C12.6353448,10.7732252 13.1582657,11.296146 13.1582657,11.9388945 C13.158215,12.5816937 12.6353448,13.1045639 11.9925963,13.1045639 Z M13.6880832,10.168357 C13.0453347,10.168357 12.5224138,9.64543611 12.5224138,9.00268763 C12.5224138,8.35993915 13.0453347,7.83701826 13.6880832,7.83701826 C14.3307809,7.83701826 14.8537525,8.35998986 14.8537525,9.00268763 C14.8537018,9.64548682 14.3308316,10.168357 13.6880832,10.168357 Z M13.123783,6.77738337 C13.2412779,6.68078093 13.3774341,6.58174442 13.5336207,6.48488844 C13.5659736,6.46972617 13.5971095,6.45111562 13.6265213,6.4290568 C14.2740365,6.05086207 15.243712,5.72023327 16.6561866,5.72023327 C18.6348377,5.72023327 19.7088742,6.28600406 20.2686613,6.77738337 L13.123783,6.77738337 Z" id="Shape"></path>
                </g>
            </g>
        </g>
    </g>
</svg>