<?xml version="1.0" encoding="UTF-8"?>
<svg width="31px" height="27px" viewBox="0 0 31 27" version="1.1" xmlns="http://www.w3.org/2000/svg" xmlns:xlink="http://www.w3.org/1999/xlink">
    <!-- Generator: Sketch 41.2 (35397) - http://www.bohemiancoding.com/sketch -->
    <title>Basket</title>
    <desc>Created with Sketch.</desc>
    <defs></defs>
    <g id="Symbols" stroke="none" stroke-width="1" fill="none" fill-rule="evenodd">
        <g id="Bottom-Bar" transform="translate(-50.000000, -8.000000)" fill="#FFFFFF">
            <g id="Basket">
                <g transform="translate(50.303653, 8.497839)">
                    <path d="M2.53191324,16.4873242 C2.88154795,16.4873242 3.1653516,16.2039954 3.1653516,15.8543607 C3.1653516,15.5046667 2.88154795,15.2209224 2.53191324,15.2209224 C2.18221918,15.2209224 1.8993653,15.5046667 1.8993653,15.8543607 C1.89942466,16.2039361 2.18227854,16.4873242 2.53191324,16.4873242 Z" id="Shape"></path>
                    <path d="M27.8579315,16.4873242 C28.2076256,16.4873242 28.4913699,16.2039954 28.4913699,15.8543607 C28.4913699,15.5046667 28.2076256,15.2209224 27.8579315,15.2209224 C27.5082374,15.2209224 27.2244338,15.5046667 27.2244338,15.8543607 C27.2244932,16.2039361 27.5082968,16.4873242 27.8579315,16.4873242 Z" id="Shape"></path>
                    <path d="M2.53191324,22.818621 C2.88154795,22.818621 3.1653516,22.5352922 3.1653516,22.1855982 C3.1653516,21.8359041 2.88154795,21.5526347 2.53191324,21.5526347 C2.18221918,21.5526347 1.8993653,21.8359041 1.8993653,22.1855982 C1.8993653,22.5352922 2.18227854,22.818621 2.53191324,22.818621 Z" id="Shape"></path>
                    <ellipse id="Oval" cx="27.8576347" cy="22.1855982" rx="0.633438356" ry="0.633022831"></ellipse>
                    <path d="M25.3250685,9.52258904 L25.3250685,12.0555114 L23.7688082,12.0555114 L25.499411,8.17551598 C25.8834155,7.31436986 25.6292922,6.30161644 24.935484,5.51419635 L27.4461461,3.012379 C27.6937991,2.76520091 27.6947489,2.36457534 27.4470959,2.11692237 C27.2003927,1.86926941 26.7997671,1.86831963 26.5530046,2.11508219 L24.5311187,4.12954795 L25.7980548,1.28919635 L25.7952648,1.28824658 C25.8036347,1.27340639 25.8110548,1.25809132 25.8184749,1.24236073 C25.9612968,0.923296804 25.8175251,0.549086758 25.4975708,0.406739726 C25.1785068,0.263917808 24.8038219,0.407689498 24.6619498,0.726753425 C24.6554795,0.742543379 24.6498995,0.758273973 24.6443196,0.774479452 L24.6405799,0.77352968 L23.4125845,3.52952968 L23.5600365,0.679442922 C23.5776667,0.330223744 23.3095936,0.0325296804 22.9600183,0.0144246575 C22.611274,-0.0036803653 22.3135799,0.26486758 22.2959498,0.614086758 L22.1067078,4.23716895 L22.1039178,4.23716895 C21.0419543,4.23716895 20.105242,4.7273105 19.7175571,5.59629224 L16.8369589,12.0555708 L16.0420594,12.0555708 L5.50624201,12.0556301 L5.06477626,12.0556301 L5.06477626,9.52270776 L0,9.52270776 L0,25.9845662 L30.3908539,25.9845662 L30.3908539,9.52258904 L25.3250685,9.52258904 Z M5.10502283,12.0502283 C5.44145793,11.4996704 5.80125337,10.9703468 6.22799429,10.5991727 C7.29575686,9.64510091 7.22738364,8.54814412 7.21074193,8.38648388 C7.19497632,8.16891483 7.0453888,7.31673909 5.68592243,6.91345123 C5.99450882,6.75533645 6.38689769,6.65061031 6.82502228,6.75450328 C6.94553532,6.78309653 7.07234219,6.76025247 7.17511676,6.69151309 C7.27796741,6.62280918 7.34771461,6.51435424 7.36736119,6.39217022 L7.58890627,5.0174262 L8.64239964,5.92809418 C8.73602364,6.0089879 8.85901955,6.04735326 8.9820813,6.03383178 C9.10495541,6.02031542 9.21681959,5.95641666 9.29070277,5.85706897 C9.5596916,5.4957446 9.92769197,5.32383803 10.2655091,5.24655481 C9.48341717,6.42924299 9.91640684,7.17820562 10.044221,7.35511867 C10.1353859,7.48965469 10.7881192,8.3739218 12.2133082,8.41835927 C12.784903,8.42850623 13.3331802,8.52888257 13.9446644,8.73436295 C15.3446315,9.20484171 16.2008271,10.2434311 16.8584475,12.0502283 L5.10502283,12.0502283 Z M1.26592694,10.7889909 L3.79878995,10.7889909 L3.79878995,12.0554521 L1.26592694,12.0554521 L1.26592694,10.7889909 Z M29.1239178,24.7180457 L1.26592694,24.7180457 L1.26592694,19.65321 L29.1238584,19.65321 L29.1239178,24.7180457 Z M29.1239178,18.3867489 L1.26592694,18.3867489 L1.26592694,13.3214977 L29.1238584,13.3214977 L29.1239178,18.3867489 Z M29.1239178,12.0554521 L26.5920046,12.0554521 L26.5920046,10.7889909 L29.1239178,10.7889909 L29.1239178,12.0554521 Z" id="Combined-Shape"></path>
                </g>
            </g>
        </g>
    </g>
</svg>