<?xml version="1.0" encoding="UTF-8"?>
<svg width="26px" height="26px" viewBox="0 0 26 26" version="1.1" xmlns="http://www.w3.org/2000/svg" xmlns:xlink="http://www.w3.org/1999/xlink">
    <!-- Generator: Sketch 41.2 (35397) - http://www.bohemiancoding.com/sketch -->
    <title>Offerings</title>
    <desc>Created with Sketch.</desc>
    <defs></defs>
    <g id="Symbols" stroke="none" stroke-width="1" fill="none" fill-rule="evenodd">
        <g id="Bottom-Bar" transform="translate(-299.000000, -8.000000)" fill="#FFFFFF">
            <g id="Offerings">
                <g transform="translate(299.500000, 7.623653)">
                    <path d="M24.9571666,18.8050653 C24.8914903,18.6865106 24.7744821,18.6014032 24.6371871,18.5723505 C24.6025559,18.5650263 21.8213571,17.9803583 18.2765313,17.5135126 C18.2715621,17.4981317 18.2681809,17.4826044 18.2613674,17.4675165 C16.6984063,13.9915888 16.1808346,13.9915888 15.9027608,13.9915888 C15.5675662,13.9915888 13.9022485,14.3178095 12.5465108,14.595202 L12.5465108,11.2495966 C12.5667977,11.2495966 12.5869821,11.2480829 12.6070129,11.2456415 C13.0716133,11.3636102 13.5431809,11.4218134 14.0109063,11.4218134 C15.4284268,11.4218134 16.8095744,10.8916864 17.8465621,9.90335633 C19.2839084,8.5333368 19.797433,6.5333368 19.1866748,4.68387391 C19.1396973,4.54144227 19.0226891,4.42991883 18.8732526,4.38514344 C16.9329862,3.80316102 14.8346256,4.29246766 13.3970744,5.66243836 C13.1733551,5.87571961 12.9747895,6.10570008 12.7965621,6.34652039 C12.6178223,4.99412781 11.9761727,3.71126649 10.9236625,2.70809266 C9.18667477,1.05262391 6.65122395,0.461315315 4.30639813,1.16478211 C4.15701289,1.2095575 4.04005592,1.32108094 3.99302723,1.46346375 C3.25496371,3.69837586 3.87550674,6.11507508 5.61239199,7.77064149 C6.86556822,8.96507508 8.53421576,9.60545594 10.2472793,9.60545594 C10.6932321,9.60545594 11.1421563,9.56092469 11.5876481,9.47249696 L11.5876481,14.7936395 C11.4018899,14.8325067 11.2369309,14.8672235 11.1021973,14.8956903 C10.0993285,14.7112665 8.44856002,14.5093134 7.89231002,15.0393915 L7.01346781,15.8771356 L5.68242272,16.2999872 C4.06597805,16.8136102 3.51203338,19.0901727 3.45137764,19.3615595 C2.902351,19.0450067 2.36054772,18.6686884 1.83959485,18.2218622 C1.75158256,18.1463251 1.63734076,18.1045282 1.5188469,18.1045282 C0.457166576,18.1045282 0.0804247724,18.596911 0.0804247724,19.018493 C0.0804247724,19.1500848 0.0804247724,19.3951044 1.08821166,20.5093622 C1.47755592,20.9397821 2.2983551,21.8011102 3.42145961,22.7333856 C5.1469719,24.1658075 7.71490223,25.873327 10.149226,25.873327 C12.9540416,25.873327 14.9593182,25.3109735 16.42356,24.900329 C17.2164391,24.6779657 17.8427711,24.5023798 18.3001481,24.5023798 C19.7614186,24.5023798 22.5751481,24.0580927 22.6941543,24.0391962 C22.8593694,24.0129266 22.9982526,23.9063837 23.0604965,23.7580927 L24.9783756,19.1881708 C25.0306297,19.0637079 25.0228428,18.92362 24.9571666,18.8050653 Z M14.0752506,6.30882508 C15.1989186,5.23782899 16.8132117,4.82034852 18.3414391,5.19085633 C18.7301686,6.64735047 18.2921563,8.18607117 17.1684883,9.25706727 C16.1404145,10.2369989 14.7018387,10.6678095 13.2940518,10.4505243 C13.6832936,9.83587586 14.2306809,9.13001649 14.6788367,8.91644227 C14.9156194,8.80360047 15.0116235,8.52908875 14.8932321,8.3033075 C14.7747895,8.07767274 14.4866748,7.98612 14.2499432,8.0989618 C13.6897998,8.36590516 13.1614186,8.97952821 12.7694617,9.53294617 C12.7070641,8.34627625 13.1667977,7.17469422 14.0752506,6.30882508 Z M9.40383666,6.14598328 C10.6615211,6.94515321 11.115517,8.59261414 11.1226379,8.61917664 C11.1229453,8.62039735 11.12356,8.62147156 11.1239186,8.62269227 C9.36690018,8.88724305 7.57361125,8.34720399 6.29051699,7.1243036 C4.86700264,5.76756531 4.3216133,3.81195008 4.83718707,1.96932313 C6.77028133,1.47825867 8.82222805,1.99769227 10.2456912,3.35452821 C11.4881092,4.53865906 12.0611625,6.17903992 11.8441543,7.80233094 C11.5669002,7.13245789 10.9858039,6.05272156 9.93570141,5.38553406 C9.71515838,5.24539735 9.41756617,5.30228211 9.27079362,5.51229188 C9.12391862,5.72220399 9.18344731,6.00599305 9.40383666,6.14598328 Z M4.3863674,19.5651239 C4.50455387,19.0018427 5.02222805,17.4731805 5.98570141,17.167077 L7.42407231,16.7100946 C7.49466658,16.6876337 7.55880592,16.6498407 7.61146985,16.5996942 L8.56275059,15.6930048 C8.79830387,15.5548212 9.96065018,15.6102899 11.0142362,15.8106317 C11.0796563,15.8230341 11.1471768,15.8223993 11.2121871,15.8086298 C13.1181297,15.4049677 15.2344719,14.9853388 15.7930272,14.9155634 C16.0706399,15.2072138 16.6675662,16.3064325 17.1714596,17.3750848 C16.6151584,17.3092645 16.0462547,17.2475946 15.4710498,17.1927606 C10.7079862,16.7386102 7.96649035,17.1305048 7.32304772,18.3570673 C7.19405182,18.6030145 7.20245346,18.8711298 7.34615223,19.0927118 C7.74302723,19.7048212 9.15250469,19.9324579 12.5465108,19.9324579 C13.0299125,19.9324579 13.2540928,20.053747 13.299226,20.1576044 C13.3393387,20.249743 13.2888264,20.3976434 13.1813981,20.5084345 C12.9363162,20.6474481 11.3200764,21.0919794 8.99220756,20.9524286 C7.68006617,20.8735712 5.97094731,20.5888055 4.26628543,19.7863153 C4.32504567,19.7264032 4.36823215,19.6513544 4.3863674,19.5651239 Z M22.2710498,23.1782587 C21.5321153,23.2890985 19.4324227,23.5883661 18.3001481,23.5883661 C17.7045539,23.5883661 17.0198203,23.7803583 16.1529145,24.0234735 C14.7446153,24.4184442 12.8159268,24.9593134 10.149226,24.9593134 C8.07596781,24.9593134 5.78990223,23.4570184 4.2372383,22.1967645 C2.58390838,20.8548212 1.45834485,19.5512567 1.12053748,19.0705927 C1.18565018,19.0532587 1.2671051,19.0384638 1.34984076,19.0290888 C3.95921576,21.1905634 6.99794526,21.7709833 9.10573215,21.8740106 C11.2828838,21.9805536 13.4034268,21.5898309 13.8445129,21.1695673 C14.2388776,20.7936395 14.3758141,20.2463739 14.1851891,19.8077997 C14.0570641,19.5129755 13.6738162,19.0184442 12.5465108,19.0184442 C9.55957436,19.0184442 8.57033256,18.8206903 8.25404158,18.665661 C8.55742272,18.3380243 9.86643912,17.5773309 15.3756092,18.1021845 C19.0976379,18.4569696 22.5650047,19.0963251 23.876224,19.3532587 L22.2710498,23.1782587 Z" id="Shape"></path>
                </g>
            </g>
        </g>
    </g>
</svg>